<?xml version="1.0" encoding="utf-8"?>
<!-- Generator: Adobe Illustrator 23.0.1, SVG Export Plug-In . SVG Version: 6.00 Build 0)  -->
<svg version="1.1" id="Layer_1" xmlns="http://www.w3.org/2000/svg" xmlns:xlink="http://www.w3.org/1999/xlink" x="0px" y="0px"
	 viewBox="0 0 435.1 404.7" style="enable-background:new 0 0 435.1 404.7;" xml:space="preserve">
<style type="text/css">
	.st0{opacity:0.36;}
	.st1{fill:none;stroke:#FF0093;stroke-width:2;stroke-miterlimit:10;}
	.st2{fill:#9B9DA1;}
	.st3{fill:none;stroke:#6ED7FF;stroke-width:2;stroke-linecap:round;stroke-linejoin:round;}
	.st4{fill:none;stroke:#B747FF;stroke-width:2;stroke-linecap:round;stroke-linejoin:round;}
	.st5{fill:none;stroke:#FF6EC0;stroke-width:2;stroke-linecap:round;stroke-linejoin:round;}
	.st6{fill:none;stroke:#EDF1FC;stroke-width:2;stroke-linecap:round;stroke-linejoin:round;}
	.st7{fill:none;stroke:#00FFE1;stroke-width:2;stroke-linecap:round;stroke-linejoin:round;}
	.st8{fill:none;stroke:#FFBF00;stroke-width:2;stroke-linecap:round;stroke-linejoin:round;}
</style>
<title>pattern</title>
<g class="st0">
	<g id="_ÎÓÈ_1">
		<path class="st1" d="M29.1,273.3c0.6,3,3.6,5,6.6,4.3c3-0.6,5-3.6,4.3-6.6c-0.6-3-3.6-5-6.6-4.3C30.4,267.3,28.4,270.3,29.1,273.3
			z"/>
		<path class="st2" d="M28,283.5c-0.2-0.9-1-1.4-1.9-1.3c-0.9,0.2-1.4,1-1.3,1.9c0.2,0.9,1,1.4,1.9,1.3c0,0,0,0,0,0
			C27.6,285.2,28.2,284.3,28,283.5z"/>
		<polygon class="st3" points="72.5,403.2 80.1,389.1 64.1,389.6 		"/>
		<path class="st2" d="M84.1,396c-0.8,0.5-1,1.5-0.5,2.2c0.5,0.8,1.5,1,2.2,0.5s1-1.5,0.5-2.2c0,0,0,0,0,0
			C85.8,395.8,84.8,395.5,84.1,396C84.1,396,84.1,396,84.1,396z"/>
		<polyline class="st4" points="82.9,10.9 82.8,20.8 92.6,21 92.4,30.8 102.3,31 		"/>
		<path class="st2" d="M80.9,34.9c0,0.9,0.7,1.6,1.6,1.6c0.9,0,1.6-0.7,1.6-1.6c0-0.9-0.7-1.6-1.6-1.6
			C81.6,33.3,80.9,34.1,80.9,34.9C80.9,34.9,80.9,34.9,80.9,34.9z"/>
		<path class="st2" d="M100.8,23.1c0,0.9,0.7,1.6,1.6,1.6c0.9,0,1.6-0.7,1.6-1.6l0,0c0-0.9-0.7-1.6-1.6-1.6
			C101.6,21.5,100.8,22.2,100.8,23.1z"/>
		<path class="st2" d="M95.1,9.7c0,0.9,0.7,1.6,1.6,1.6c0.9,0,1.6-0.7,1.6-1.6c0-0.9-0.7-1.6-1.6-1.6c0,0,0,0,0,0
			C95.9,8.1,95.1,8.8,95.1,9.7z"/>
		
			<rect x="186.4" y="231" transform="matrix(0.9455 -0.3256 0.3256 0.9455 -66.784 75.6964)" class="st5" width="12.8" height="12.8"/>
		<path class="st2" d="M196.4,249.2c-0.2-0.9-1-1.5-1.9-1.3c-0.9,0.2-1.5,1-1.3,1.9c0,0.2,0.1,0.3,0.2,0.5c0.4,0.8,1.4,1.1,2.2,0.6
			C196.2,250.6,196.5,249.9,196.4,249.2z"/>
		<path class="st2" d="M203.6,219.5c-0.1-0.9-0.9-1.5-1.8-1.4c-0.9,0.1-1.5,0.9-1.4,1.8c0,0.2,0.1,0.4,0.2,0.6
			c0.4,0.8,1.4,1.1,2.2,0.6C203.4,220.8,203.7,220.1,203.6,219.5z"/>
		<line class="st6" x1="206.2" y1="18.8" x2="216.9" y2="25.9"/>
		<line class="st6" x1="202.7" y1="24.1" x2="213.3" y2="31.2"/>
		<path class="st2" d="M221.7,21.3c-0.5,0.7-0.3,1.7,0.4,2.2c0.7,0.5,1.7,0.3,2.2-0.4c0.5-0.7,0.3-1.7-0.4-2.2c0,0,0,0,0,0
			C223.2,20.4,222.2,20.6,221.7,21.3z"/>
		<path class="st2" d="M202.9,33.8c-0.5,0.7-0.3,1.7,0.4,2.2c0.7,0.5,1.7,0.3,2.2-0.4c0.5-0.7,0.3-1.7-0.4-2.2
			C204.4,32.8,203.4,33,202.9,33.8z"/>
		<polygon class="st3" points="263,61.3 263.3,77.3 249.3,69.6 		"/>
		<path class="st2" d="M270,73c-0.5-0.8-0.2-1.7,0.6-2.2c0.8-0.5,1.7-0.2,2.2,0.6c0.5,0.8,0.2,1.7-0.5,2.2
			C271.4,74,270.5,73.8,270,73C270,73,270,73,270,73z"/>
		<polyline class="st4" points="164.5,88 173.1,83.1 178,91.6 186.5,86.7 191.5,95.2 		"/>
		<path class="st2" d="M184.5,74.6c0.8-0.4,1.8-0.2,2.2,0.6c0.4,0.8,0.2,1.8-0.6,2.2c-0.8,0.4-1.8,0.2-2.2-0.6
			C183.5,76,183.7,75,184.5,74.6C184.5,74.6,184.5,74.6,184.5,74.6z"/>
		<path class="st2" d="M183.8,97.8c0.8-0.4,1.8-0.2,2.2,0.6c0.4,0.8,0.2,1.8-0.6,2.2c-0.8,0.4-1.8,0.2-2.2-0.6
			C182.8,99.2,183.1,98.2,183.8,97.8C183.8,97.8,183.8,97.8,183.8,97.8z"/>
		<path class="st2" d="M169.3,99.3c0.8-0.4,1.8-0.2,2.2,0.6c0.4,0.8,0.2,1.8-0.6,2.2c-0.8,0.4-1.8,0.2-2.2-0.6
			C168.3,100.7,168.6,99.8,169.3,99.3C169.3,99.3,169.3,99.3,169.3,99.3z"/>
		<polyline class="st4" points="63.1,361.8 61.2,371.5 51.5,369.6 49.6,379.3 40,377.4 		"/>
		<path class="st2" d="M60.1,385.7c-0.2,0.9-1,1.4-1.9,1.3s-1.4-1-1.3-1.9c0.2-0.9,1-1.4,1.9-1.3C59.7,384,60.3,384.8,60.1,385.7
			C60.1,385.7,60.1,385.7,60.1,385.7z"/>
		<path class="st2" d="M43.1,370c-0.2,0.9-1,1.4-1.9,1.3s-1.4-1-1.3-1.9c0.2-0.9,1-1.4,1.9-1.3C42.7,368.3,43.2,369.1,43.1,370
			C43.1,370,43.1,370,43.1,370z"/>
		<path class="st2" d="M51.4,358c-0.2,0.9-1,1.4-1.9,1.3c-0.9-0.2-1.4-1-1.3-1.9c0.2-0.9,1-1.4,1.9-1.3
			C51,356.3,51.6,357.1,51.4,358C51.4,358,51.4,358,51.4,358z"/>
		
			<rect x="127.3" y="341" transform="matrix(0.8746 -0.4848 0.4848 0.8746 -151.6439 108.3484)" class="st5" width="12.8" height="12.8"/>
		<path class="st2" d="M144.7,341.8c-0.8,0.4-1.1,1.4-0.6,2.2c0.4,0.8,1.4,1.1,2.2,0.6c0.8-0.4,1.1-1.4,0.6-2.2c0,0,0,0,0,0
			C146.4,341.6,145.5,341.3,144.7,341.8C144.7,341.8,144.7,341.8,144.7,341.8z"/>
		<path class="st2" d="M114.1,339.8c-0.8,0.4-1.1,1.4-0.6,2.2c0.4,0.8,1.4,1.1,2.2,0.6c0.8-0.4,1.1-1.4,0.6-2.2
			C115.9,339.7,114.9,339.4,114.1,339.8C114.1,339.8,114.1,339.8,114.1,339.8z"/>
		<polygon class="st3" points="376.1,193.8 363.5,183.9 378.3,177.9 		"/>
		<path class="st2" d="M362.6,191.9c0.9,0.1,1.5,0.9,1.4,1.8c-0.1,0.9-0.9,1.5-1.8,1.4c-0.9-0.1-1.5-0.9-1.4-1.8
			C360.9,192.4,361.8,191.8,362.6,191.9z"/>
		<path class="st1" d="M297.2,169.8c-3,0.6-6-1.3-6.6-4.3c-0.6-3,1.3-6,4.3-6.6s6,1.3,6.6,4.3c0,0,0,0,0,0
			C302.2,166.2,300.3,169.1,297.2,169.8z"/>
		<path class="st2" d="M288.4,174.9c0.9-0.2,1.7,0.4,1.9,1.2s-0.4,1.7-1.2,1.9s-1.7-0.4-1.9-1.2S287.5,175,288.4,174.9L288.4,174.9z
			"/>
		<path class="st2" d="M395.7,398.5c0.3-0.8-0.1-1.8-1-2.1c-0.8-0.3-1.8,0.1-2.1,1c-0.3,0.8,0.1,1.8,1,2.1c0,0,0,0,0.1,0
			C394.5,399.7,395.4,399.3,395.7,398.5z"/>
		<line class="st7" x1="403.3" y1="7.9" x2="398.6" y2="21.5"/>
		<path class="st2" d="M408.7,23.2c0.3-0.8-0.2-1.8-1-2c-0.8-0.3-1.8,0.2-2,1c-0.3,0.8,0.2,1.8,1,2C407.5,24.5,408.4,24,408.7,23.2
			C408.7,23.2,408.7,23.2,408.7,23.2z"/>
		<path class="st1" d="M403.7,106.3c-3-0.8-6.1,1-6.9,3.9c-0.8,3,1,6.1,3.9,6.9c3,0.8,6.1-1,6.9-3.9c0,0,0,0,0,0
			C408.5,110.2,406.7,107.1,403.7,106.3z"/>
		<path class="st2" d="M395.2,100.7c0.9,0.2,1.7-0.3,2-1.1c0.2-0.9-0.3-1.7-1.1-2c-0.8-0.2-1.7,0.3-2,1.1
			C393.8,99.6,394.3,100.5,395.2,100.7C395.2,100.7,395.2,100.7,395.2,100.7z"/>
		<line class="st7" x1="165.9" y1="308.9" x2="165.9" y2="294.5"/>
		<path class="st2" d="M156,314.4c0,0.9-0.7,1.6-1.6,1.6s-1.6-0.7-1.6-1.6c0-0.9,0.7-1.6,1.6-1.6h0C155.3,312.8,156,313.5,156,314.4
			z"/>
		<path class="st2" d="M175.9,296.2c0,0.9-0.7,1.6-1.6,1.6s-1.6-0.7-1.6-1.6s0.7-1.6,1.6-1.6c0,0,0,0,0,0
			C175.2,294.6,175.9,295.3,175.9,296.2z"/>
		<line class="st7" x1="296.5" y1="17" x2="306.1" y2="27.7"/>
		<path class="st2" d="M285.4,19.6c-0.6-0.7-1.6-0.7-2.3-0.1c-0.7,0.6-0.7,1.6-0.1,2.3c0.6,0.7,1.6,0.7,2.3,0.1c0,0,0,0,0,0
			C286,21.2,286,20.2,285.4,19.6z"/>
		<path class="st2" d="M312.5,19.7c-0.6-0.7-1.6-0.7-2.3-0.1c-0.7,0.6-0.7,1.6-0.1,2.3c0.6,0.7,1.6,0.7,2.3,0.1c0,0,0,0,0,0
			C313,21.4,313.1,20.4,312.5,19.7z"/>
		<line class="st7" x1="141.8" y1="191.4" x2="142.2" y2="205.8"/>
		<path class="st2" d="M152.2,203.8c0-0.9-0.8-1.6-1.6-1.6c-0.9,0-1.6,0.8-1.6,1.6c0,0.9,0.8,1.6,1.6,1.6
			C151.5,205.4,152.2,204.7,152.2,203.8z"/>
		
			<rect x="328.1" y="390.5" transform="matrix(0.9986 -5.233596e-02 5.233596e-02 0.9986 -20.3133 18.0489)" class="st5" width="12.8" height="12.8"/>
		<path class="st2" d="M346.8,396.7c-0.9,0.1-1.6,0.8-1.5,1.7c0.1,0.9,0.8,1.6,1.7,1.5c0.9-0.1,1.6-0.8,1.5-1.7
			C348.5,397.4,347.7,396.7,346.8,396.7C346.8,396.7,346.8,396.7,346.8,396.7z"/>
		<path class="st2" d="M320.2,381.5c-0.9,0-1.6,0.8-1.5,1.7c0,0.9,0.8,1.6,1.7,1.5c0.9,0,1.6-0.8,1.5-1.7c0,0,0,0,0,0
			C321.9,382.2,321.1,381.5,320.2,381.5z"/>
		<line class="st7" x1="143.5" y1="66.3" x2="131.8" y2="57.9"/>
		<path class="st2" d="M153.7,61.6c0.7,0.6,1.7,0.5,2.3-0.2c0.6-0.7,0.5-1.7-0.2-2.3c0,0-0.1-0.1-0.2-0.1c-0.7-0.5-1.7-0.3-2.2,0.5
			C153,60.1,153.1,61.1,153.7,61.6z"/>
		<path class="st2" d="M127.2,67c0.7,0.5,1.7,0.4,2.2-0.4c0.5-0.7,0.4-1.7-0.4-2.2c-0.7-0.5-1.7-0.4-2.2,0.3
			C126.4,65.5,126.5,66.5,127.2,67C127.2,67,127.2,67,127.2,67z"/>
		<line class="st6" x1="352.2" y1="74.9" x2="340.2" y2="79.3"/>
		<line class="st6" x1="350" y1="68.9" x2="338" y2="73.2"/>
		<path class="st2" d="M341.1,85.9c-0.3-0.8-1.2-1.3-2-1c0,0,0,0,0,0c-0.8,0.4-1.1,1.4-0.7,2.2c0.3,0.7,1.1,1,1.8,0.8
			C340.9,87.6,341.3,86.7,341.1,85.9z"/>
		<path class="st2" d="M342,63.4c-0.2-0.9-1.1-1.4-1.9-1.2s-1.4,1.1-1.2,1.9c0,0.1,0.1,0.3,0.1,0.4c0.3,0.8,1.2,1.3,2,1
			c0,0,0,0,0.1,0C341.9,65.2,342.4,64.2,342,63.4C342.1,63.4,342.1,63.4,342,63.4z"/>
		<path class="st1" d="M381.3,80c-2.2,2.2-2.1,5.8,0.1,7.9c2.2,2.2,5.8,2.1,7.9-0.1s2.1-5.8-0.1-7.9c0,0,0,0,0,0
			C387,77.7,383.5,77.8,381.3,80z"/>
		<path class="st2" d="M372.3,84.8c0.6-0.6,0.6-1.6,0-2.3c-0.6-0.6-1.6-0.6-2.3,0s-0.6,1.6,0,2.3c0,0,0,0,0,0
			C370.7,85.4,371.7,85.4,372.3,84.8C372.3,84.8,372.3,84.8,372.3,84.8z"/>
		<line class="st7" x1="238.8" y1="297.6" x2="253" y2="299.8"/>
		<path class="st2" d="M234.9,287c-0.9-0.1-1.5-1-1.4-1.8c0.1-0.9,1-1.5,1.8-1.4c0.9,0.1,1.5,1,1.4,1.8c0,0,0,0,0,0
			C236.6,286.5,235.8,287.1,234.9,287C234.9,287,234.9,287,234.9,287z"/>
		<path class="st2" d="M249.8,309.5c-0.9-0.1-1.5-1-1.3-1.8s1-1.5,1.8-1.3c0.9,0.1,1.5,1,1.3,1.8
			C251.5,309.1,250.7,309.7,249.8,309.5C249.8,309.5,249.8,309.5,249.8,309.5z"/>
		<line class="st7" x1="395.2" y1="256.8" x2="381.2" y2="260.1"/>
		<path class="st2" d="M398.4,246c0.9-0.2,1.4-1.1,1.2-1.9c-0.2-0.9-1.1-1.4-1.9-1.2c-0.9,0.2-1.4,1.1-1.2,1.9c0,0,0,0,0,0
			C396.6,245.7,397.5,246.2,398.4,246z"/>
		<path class="st2" d="M385.1,269.5c0.9-0.2,1.4-1.1,1.2-1.9c-0.2-0.9-1.1-1.4-1.9-1.2c-0.9,0.2-1.4,1.1-1.2,1.9c0,0,0,0,0,0
			C383.4,269.2,384.2,269.7,385.1,269.5z"/>
		<polygon class="st3" points="57.5,191.8 73,187.9 68.6,203.3 		"/>
		<path class="st2" d="M67.2,182.3c-0.6,0.6-1.6,0.6-2.3,0c-0.6-0.6-0.6-1.6,0-2.3c0.6-0.6,1.6-0.6,2.3,0
			C67.9,180.7,67.9,181.7,67.2,182.3C67.2,182.3,67.2,182.3,67.2,182.3z"/>
		<path class="st1" d="M110.8,107.7c2.6-1.7,6.1-0.9,7.7,1.6c1.7,2.6,0.9,6.1-1.6,7.7c-2.6,1.7-6.1,0.9-7.7-1.6c0,0,0,0,0,0
			C107.5,112.8,108.2,109.4,110.8,107.7z"/>
		<path class="st2" d="M117.3,99.8c-0.7,0.5-1.7,0.3-2.2-0.5c-0.5-0.7-0.3-1.7,0.5-2.2s1.7-0.3,2.2,0.5c0,0,0,0,0,0
			C118.2,98.3,118,99.3,117.3,99.8C117.3,99.7,117.3,99.7,117.3,99.8z"/>
		
			<rect x="229" y="143.9" transform="matrix(0.788 -0.6157 0.6157 0.788 -42.6112 176.8098)" class="st5" width="12.8" height="12.8"/>
		<path class="st2" d="M244.9,142.3c-0.7,0.5-1.7,0.4-2.3-0.3c-0.5-0.7-0.4-1.7,0.3-2.3c0.7-0.5,1.7-0.4,2.3,0.3
			C245.7,140.8,245.6,141.8,244.9,142.3z"/>
		<path class="st2" d="M234.8,171.2c-0.7,0.6-1.7,0.5-2.3-0.2c-0.6-0.7-0.5-1.7,0.2-2.3c0.7-0.6,1.7-0.5,2.3,0.2c0,0,0,0,0,0.1
			C235.5,169.7,235.4,170.7,234.8,171.2z"/>
		<polyline class="st4" points="372.2,333 363.6,328.2 368.4,319.6 359.8,314.8 364.5,306.2 		"/>
		<path class="st2" d="M350.4,322.8c-0.8-0.4-1.1-1.4-0.6-2.2c0.4-0.8,1.4-1.1,2.2-0.6c0.8,0.4,1.1,1.4,0.6,2.2c0,0,0,0,0,0
			C352.2,322.9,351.2,323.2,350.4,322.8C350.5,322.8,350.4,322.8,350.4,322.8z"/>
		<path class="st2" d="M370.7,311.4c-0.8-0.4-1.1-1.4-0.6-2.2c0.4-0.8,1.4-1.1,2.2-0.6c0.8,0.4,1.1,1.4,0.6,2.2
			C372.4,311.6,371.4,311.9,370.7,311.4C370.7,311.4,370.7,311.4,370.7,311.4z"/>
		<path class="st2" d="M379.4,323c-0.8-0.4-1.1-1.4-0.6-2.2c0.4-0.8,1.4-1.1,2.2-0.6c0.8,0.4,1.1,1.4,0.6,2.2
			C381.2,323.2,380.2,323.5,379.4,323z"/>
		<polyline class="st4" points="301.6,231.9 311.4,230.6 310.2,220.9 320,219.6 318.8,209.9 		"/>
		<path class="st2" d="M325.6,230.5c0.9-0.1,1.5-0.9,1.4-1.8c-0.1-0.9-0.9-1.5-1.8-1.4c-0.9,0.1-1.5,0.9-1.4,1.8
			C323.9,230,324.7,230.6,325.6,230.5C325.6,230.5,325.6,230.5,325.6,230.5z"/>
		<path class="st2" d="M311.1,212.4c0.9-0.1,1.5-0.9,1.4-1.8s-0.9-1.5-1.8-1.4c-0.9,0.1-1.5,0.9-1.4,1.8c0,0,0,0,0,0
			C309.5,211.9,310.3,212.5,311.1,212.4z"/>
		<path class="st2" d="M298.6,219.9c0.9-0.1,1.5-0.9,1.4-1.8s-0.9-1.5-1.8-1.4c-0.9,0.1-1.5,0.9-1.4,1.8
			C297,219.4,297.8,220,298.6,219.9C298.6,219.9,298.6,219.9,298.6,219.9z"/>
		<line class="st7" x1="362.6" y1="255.4" x2="366.3" y2="241.5"/>
		<path class="st2" d="M351.6,258.2c-0.2,0.8-1.1,1.3-2,1.1s-1.3-1.1-1.1-2c0.2-0.8,1.1-1.3,1.9-1.1
			C351.3,256.4,351.8,257.3,351.6,258.2C351.6,258.2,351.6,258.2,351.6,258.2z"/>
		<path class="st2" d="M375.6,245.8c-0.2,0.9-1.1,1.3-2,1.1c-0.9-0.2-1.3-1.1-1.1-2c0.2-0.8,1.1-1.3,2-1.1
			C375.3,244,375.8,244.9,375.6,245.8C375.6,245.7,375.6,245.8,375.6,245.8z"/>
		<path class="st1" d="M96.9,304.7c-3.1-0.4-5.2-3.3-4.8-6.3c0.4-3.1,3.3-5.2,6.3-4.8c3.1,0.4,5.2,3.3,4.8,6.3c0,0,0,0,0,0
			C102.8,302.9,100,305.1,96.9,304.7z"/>
		<path class="st2" d="M86.9,306.4c0.9,0.1,1.5,0.9,1.4,1.8c-0.1,0.9-0.9,1.5-1.8,1.4c-0.9-0.1-1.5-0.9-1.4-1.8
			C85.2,306.9,86,306.3,86.9,306.4C86.9,306.4,86.9,306.4,86.9,306.4z"/>
		<polyline class="st4" points="376,383 385.9,383.5 386.4,373.6 396.2,374.1 396.8,364.3 		"/>
		<path class="st2" d="M399.9,385.9c0.9,0,1.6-0.6,1.7-1.5c0-0.9-0.6-1.6-1.5-1.7c-0.9,0-1.6,0.6-1.7,1.5c0,0,0,0,0,0
			C398.4,385,399,385.8,399.9,385.9z"/>
		<path class="st2" d="M388.8,365.5c0.9,0,1.6-0.6,1.7-1.5c0-0.9-0.6-1.6-1.5-1.7c-0.9,0-1.6,0.6-1.7,1.5c0,0,0,0,0,0
			C387.2,364.7,387.9,365.5,388.8,365.5z"/>
		<path class="st2" d="M375.2,370.7c0.9,0,1.6-0.6,1.7-1.5c0-0.9-0.6-1.6-1.5-1.7c-0.9,0-1.6,0.6-1.7,1.5c0,0,0,0,0,0
			C373.6,369.9,374.3,370.7,375.2,370.7z"/>
		<polyline class="st4" points="142,226.7 145.2,236 135.9,239.2 139,248.5 129.8,251.8 		"/>
		<path class="st2" d="M151.3,248.9c0.3,0.8-0.1,1.8-1,2.1c-0.8,0.3-1.8-0.1-2.1-1s0.1-1.8,1-2.1c0,0,0,0,0.1,0
			C150.2,247.6,151.1,248,151.3,248.9z"/>
		<path class="st2" d="M128.7,243.8c0.3,0.8-0.2,1.7-1,2c-0.8,0.3-1.8-0.1-2.1-1c-0.3-0.8,0.1-1.8,1-2.1
			C127.5,242.4,128.4,242.9,128.7,243.8C128.7,243.7,128.7,243.8,128.7,243.8z"/>
		<path class="st2" d="M130,229.2c0.3,0.8-0.1,1.8-1,2.1c-0.8,0.3-1.8-0.1-2.1-1s0.1-1.8,1-2.1c0,0,0,0,0.1,0
			C128.8,228,129.7,228.4,130,229.2z"/>
		<line class="st7" x1="181.9" y1="190.1" x2="167.6" y2="188.1"/>
		<path class="st2" d="M188.7,181.1c0.9,0.1,1.7-0.5,1.8-1.4s-0.5-1.7-1.4-1.8s-1.7,0.5-1.8,1.4c0,0,0,0,0,0
			C187.2,180.1,187.8,180.9,188.7,181.1z"/>
		<path class="st2" d="M167.9,198.3c0.9,0.1,1.7-0.5,1.8-1.4c0.1-0.9-0.5-1.7-1.4-1.8c-0.9-0.1-1.7,0.5-1.8,1.4
			C166.4,197.4,167,198.2,167.9,198.3C167.9,198.3,167.9,198.3,167.9,198.3z"/>
		<line class="st7" x1="114" y1="325.3" x2="99.8" y2="323.3"/>
		<path class="st2" d="M120.8,316.2c0.9,0.1,1.7-0.5,1.8-1.4c0.1-0.9-0.5-1.7-1.4-1.8s-1.7,0.5-1.8,1.4c0,0,0,0,0,0
			C119.4,315.3,120,316.1,120.8,316.2z"/>
		<path class="st2" d="M100,333.5c0.9,0.1,1.7-0.5,1.8-1.4c0.1-0.9-0.5-1.7-1.4-1.8c-0.9-0.1-1.7,0.5-1.8,1.4
			C98.5,332.6,99.1,333.4,100,333.5C100,333.5,100,333.5,100,333.5z"/>
		<line class="st6" x1="99.9" y1="366.9" x2="101.9" y2="354.2"/>
		<line class="st6" x1="106.2" y1="367.9" x2="108.2" y2="355.2"/>
		<path class="st2" d="M95.7,351.8c0.9,0.1,1.7-0.5,1.8-1.3c0.1-0.9-0.5-1.7-1.3-1.8s-1.7,0.5-1.8,1.3c0,0,0,0,0,0
			C94.2,350.8,94.8,351.6,95.7,351.8z"/>
		<path class="st2" d="M114.9,363.5c0.9,0.1,1.7-0.5,1.8-1.3c0.1-0.9-0.5-1.7-1.3-1.8s-1.7,0.5-1.8,1.3c0,0,0,0,0,0
			C113.4,362.6,114,363.4,114.9,363.5z"/>
		<line class="st6" x1="47.8" y1="173" x2="50" y2="160.4"/>
		<line class="st6" x1="41.5" y1="171.9" x2="43.7" y2="159.2"/>
		<path class="st2" d="M56.6,160.1c-0.9-0.2-1.5-1-1.3-1.9c0.2-0.9,1-1.5,1.9-1.3c0.9,0.2,1.5,1,1.3,1.9
			C58.4,159.6,57.5,160.2,56.6,160.1C56.6,160.1,56.6,160.1,56.6,160.1z"/>
		<path class="st2" d="M34.7,164.9c-0.9-0.2-1.4-1-1.3-1.9c0.2-0.9,1-1.4,1.9-1.3c0.9,0.2,1.4,1,1.3,1.8
			C36.4,164.5,35.5,165.1,34.7,164.9z"/>
		<polygon class="st3" points="425.6,343.1 423.6,327.3 410.9,336.9 		"/>
		<path class="st2" d="M430.9,330.6c-0.4,0.8,0,1.8,0.8,2.1c0.8,0.4,1.8,0,2.1-0.8c0.4-0.8,0-1.8-0.8-2.1c0,0,0,0,0,0
			C432.2,329.4,431.2,329.8,430.9,330.6C430.9,330.6,430.9,330.6,430.9,330.6z"/>
		<polygon class="st3" points="25.6,343.1 23.6,327.3 10.9,336.9 		"/>
		<path class="st2" d="M30.9,330.6c-0.4,0.8,0,1.8,0.8,2.1c0.8,0.4,1.8,0,2.1-0.8c0.4-0.8,0-1.8-0.8-2.1c0,0,0,0,0,0
			C32.2,329.4,31.2,329.8,30.9,330.6C30.9,330.6,30.9,330.6,30.9,330.6z"/>
		
			<rect x="30.7" y="42.9" transform="matrix(0.5299 -0.848 0.848 0.5299 -24.3778 54.687)" class="st5" width="12.8" height="12.8"/>
		<path class="st2" d="M30.2,59.5c0.5-0.7,0.3-1.7-0.4-2.2c-0.7-0.5-1.7-0.3-2.2,0.4c0,0-0.1,0.1-0.1,0.1c-0.4,0.8-0.2,1.8,0.6,2.2
			C28.8,60.4,29.7,60.2,30.2,59.5z"/>
		<path class="st2" d="M57.9,46.5c0.5-0.8,0.2-1.7-0.5-2.2c-0.8-0.5-1.7-0.2-2.2,0.5c-0.5,0.8-0.2,1.7,0.5,2.2
			C56.4,47.4,57.4,47.2,57.9,46.5C57.9,46.5,57.9,46.5,57.9,46.5z"/>
		<path class="st1" d="M71.2,55.8c-2.4,1.9-2.8,5.5-0.8,7.9c1.9,2.4,5.5,2.8,7.9,0.8c2.4-1.9,2.8-5.5,0.8-7.9
			C77.1,54.2,73.6,53.8,71.2,55.8C71.2,55.8,71.2,55.8,71.2,55.8z"/>
		<path class="st2" d="M61.7,59.4c0.7-0.6,0.8-1.6,0.2-2.3c-0.6-0.7-1.6-0.8-2.3-0.2c-0.7,0.6-0.8,1.6-0.2,2.3c0,0,0,0,0,0
			C60,59.9,61,60,61.7,59.4z"/>
		<polygon class="st3" points="195.9,280.7 185.2,268.8 180.2,284 		"/>
		<path class="st2" d="M193.1,267.4c0.2,0.9,1,1.4,1.9,1.2c0.9-0.2,1.4-1,1.2-1.9c-0.2-0.9-1-1.4-1.9-1.2
			C193.4,265.7,192.9,266.5,193.1,267.4C193,267.4,193,267.4,193.1,267.4z"/>
		<polygon class="st3" points="171,390.4 160.3,378.5 155.3,393.7 		"/>
		<path class="st2" d="M168.2,377.1c0.2,0.9,1,1.4,1.9,1.2c0.9-0.2,1.4-1,1.2-1.9c-0.2-0.9-1-1.4-1.9-1.2
			C168.5,375.3,168,376.2,168.2,377.1C168.2,377.1,168.2,377.1,168.2,377.1z"/>
		<line class="st7" x1="60.8" y1="243.2" x2="46.6" y2="241"/>
		<path class="st2" d="M64.7,253.9c0.9,0.1,1.5,1,1.3,1.8c-0.1,0.9-1,1.5-1.8,1.3c-0.9-0.1-1.5-1-1.3-1.8
			C63,254.3,63.8,253.8,64.7,253.9C64.7,253.9,64.7,253.9,64.7,253.9z"/>
		<path class="st2" d="M49.8,231.3c0.9,0.1,1.5,1,1.3,1.8s-1,1.5-1.8,1.3c-0.9-0.1-1.5-1-1.3-1.8C48.1,231.8,49,231.2,49.8,231.3
			C49.8,231.3,49.8,231.3,49.8,231.3z"/>
		<line class="st7" x1="334" y1="111.9" x2="345.9" y2="103.9"/>
		<path class="st2" d="M323.9,106.8c-0.7,0.5-1.7,0.3-2.2-0.4c-0.5-0.7-0.3-1.7,0.4-2.2s1.7-0.3,2.2,0.4
			C324.8,105.3,324.6,106.3,323.9,106.8L323.9,106.8z"/>
		<path class="st2" d="M350.1,113.2c-0.7,0.5-1.7,0.3-2.2-0.4s-0.3-1.7,0.4-2.2c0.7-0.5,1.7-0.3,2.2,0.4c0,0,0,0,0,0
			C351.1,111.7,350.9,112.7,350.1,113.2z"/>
		<line class="st7" x1="289.6" y1="136.9" x2="301.8" y2="129.3"/>
		<path class="st2" d="M290.2,148.2c-0.7,0.5-1,1.5-0.5,2.2c0.5,0.7,1.5,1,2.2,0.5c0.7-0.5,1-1.5,0.5-2.2
			C291.9,148,291,147.8,290.2,148.2C290.2,148.2,290.2,148.2,290.2,148.2z"/>
		<path class="st2" d="M295,121.7c-0.8,0.5-1,1.5-0.5,2.2c0.5,0.8,1.5,1,2.2,0.5c0.8-0.5,1-1.5,0.5-2.2
			C296.8,121.4,295.8,121.2,295,121.7C295.1,121.6,295.1,121.6,295,121.7z"/>
		<polyline class="st4" points="193.7,328.1 200.6,321.1 193.7,314.1 200.6,307.1 193.7,300.1 		"/>
		<path class="st2" d="M211.8,312.2c0.6-0.6,0.6-1.6,0-2.3c-0.6-0.6-1.6-0.6-2.3,0c-0.6,0.6-0.6,1.6,0,2.3c0,0,0,0,0,0
			C210.1,312.9,211.2,312.9,211.8,312.2z"/>
		<path class="st2" d="M189.2,306.9c0.6-0.7,0.6-1.7-0.1-2.3c-0.6-0.6-1.6-0.6-2.2,0c-0.7,0.6-0.7,1.6-0.1,2.3
			C187.5,307.5,188.5,307.6,189.2,306.9C189.2,306.9,189.2,306.9,189.2,306.9z"/>
		<path class="st2" d="M184,320.5c0.6-0.6,0.6-1.6,0-2.3c-0.6-0.6-1.6-0.6-2.3,0c-0.6,0.6-0.6,1.6,0,2.3c0,0,0,0,0,0
			C182.4,321.1,183.4,321.1,184,320.5z"/>
		<polyline class="st8" points="238.6,377.5 232.1,386.3 222.8,380.4 		"/>
		<path class="st2" d="M238.7,369.7c0.2,0.9-0.4,1.7-1.3,1.9s-1.7-0.4-1.9-1.3s0.4-1.7,1.3-1.9c0,0,0,0,0,0
			C237.7,368.3,238.6,368.9,238.7,369.7z"/>
		<path class="st2" d="M221.9,397.9c0.2,0.9-0.3,1.7-1.2,1.9c-0.9,0.2-1.7-0.3-1.9-1.2c0-0.1,0-0.1,0-0.2c-0.1-0.9,0.5-1.7,1.4-1.8
			C221,396.5,221.7,397.1,221.9,397.9z"/>
		<path class="st2" d="M240.6,388.3c0.1,0.9-0.5,1.7-1.4,1.8c-0.8,0.1-1.6-0.4-1.8-1.2c-0.2-0.9,0.3-1.7,1.2-1.9
			c0.9-0.2,1.7,0.3,1.9,1.2C240.5,388.2,240.6,388.3,240.6,388.3z"/>
		<line class="st6" x1="136.6" y1="9" x2="131" y2="20.5"/>
		<line class="st6" x1="142.4" y1="11.8" x2="136.8" y2="23.3"/>
		<path class="st2" d="M124.6,18.9c0.8,0.4,1.1,1.4,0.7,2.2c-0.4,0.8-1.4,1.1-2.2,0.7c-0.8-0.4-1.1-1.4-0.7-2.2c0,0,0,0,0,0
			C122.8,18.9,123.7,18.5,124.6,18.9C124.5,18.9,124.5,18.9,124.6,18.9z"/>
		<path class="st2" d="M147,20.3c0.8,0.4,1.1,1.4,0.7,2.2c-0.4,0.8-1.4,1.1-2.2,0.7c-0.8-0.4-1.1-1.3-0.7-2.1
			C145.2,20.2,146.2,19.9,147,20.3z"/>
		<line class="st6" x1="316.7" y1="323.1" x2="321.7" y2="311.4"/>
		<line class="st6" x1="310.9" y1="320.6" x2="315.9" y2="308.9"/>
		<path class="st2" d="M328.3,312.6c-0.8-0.3-1.2-1.3-0.9-2.1c0.3-0.8,1.3-1.2,2.1-0.9c0.8,0.3,1.2,1.3,0.9,2.1c0,0,0,0,0,0
			C330.1,312.5,329.1,312.9,328.3,312.6C328.3,312.6,328.3,312.6,328.3,312.6z"/>
		<path class="st2" d="M305.8,312.4c-0.8-0.3-1.2-1.3-0.9-2.1s1.3-1.2,2.1-0.9l0,0c0.8,0.3,1.2,1.3,0.9,2.1S306.6,312.7,305.8,312.4
			z"/>
		
			<rect x="413.5" y="236.4" transform="matrix(0.309 -0.9511 0.9511 0.309 59.2403 567.1253)" class="st5" width="12.8" height="12.8"/>
		<path class="st2" d="M431.8,246.1c-0.8-0.3-1.3-1.2-1.1-2c0.3-0.8,1.2-1.3,2-1.1c0.8,0.3,1.3,1.2,1.1,2c0,0,0,0,0,0.1
			C433.5,246,432.6,246.4,431.8,246.1z"/>
		<path class="st2" d="M402.2,253.9c-0.8-0.3-1.3-1.2-1-2.1c0.3-0.8,1.2-1.3,2-1c0.8,0.3,1.3,1.2,1,2.1
			C403.9,253.7,403,254.2,402.2,253.9z"/>
		
			<rect x="13.5" y="236.4" transform="matrix(0.309 -0.9511 0.9511 0.309 -217.1575 186.6816)" class="st5" width="12.8" height="12.8"/>
		<path class="st2" d="M31.8,246.1c-0.8-0.3-1.3-1.2-1.1-2c0.3-0.8,1.2-1.3,2-1.1c0.8,0.3,1.3,1.2,1.1,2c0,0,0,0,0,0.1
			C33.5,246,32.6,246.4,31.8,246.1z"/>
		<path class="st2" d="M2.2,253.9c-0.8-0.3-1.3-1.2-1-2.1c0.3-0.8,1.2-1.3,2-1c0.8,0.3,1.3,1.2,1,2.1C3.9,253.7,3,254.2,2.2,253.9z"
			/>
		
			<rect x="320.7" y="251.1" transform="matrix(0.6428 -0.766 0.766 0.6428 -80.4139 342.539)" class="st5" width="12.8" height="12.8"/>
		<path class="st2" d="M336.8,265.1c-0.7-0.6-0.8-1.6-0.2-2.3c0.6-0.7,1.6-0.8,2.3-0.2c0.7,0.6,0.8,1.6,0.2,2.3
			C338.5,265.5,337.5,265.6,336.8,265.1C336.8,265.1,336.8,265.1,336.8,265.1z"/>
		<polyline class="st8" points="259.9,392.6 270.5,395.3 273.9,384.9 		"/>
		<path class="st2" d="M254.8,386.8c0.4,0.8,1.4,1.1,2.2,0.6c0.8-0.4,1.1-1.4,0.6-2.2c-0.4-0.8-1.4-1.1-2.2-0.6c0,0,0,0,0,0
			C254.7,385,254.4,386,254.8,386.8C254.8,386.8,254.8,386.8,254.8,386.8z"/>
		<path class="st2" d="M285.7,397.8c0.4,0.8,1.4,1.1,2.2,0.6s1.1-1.4,0.6-2.2s-1.4-1.1-2.2-0.6c0,0,0,0,0,0
			C285.6,396,285.3,397,285.7,397.8z"/>
		<path class="st2" d="M265.2,402.3c0.4,0.8,1.4,1.1,2.2,0.6s1.1-1.4,0.6-2.2s-1.4-1.1-2.2-0.6c0,0,0,0,0,0
			C265.1,400.5,264.8,401.5,265.2,402.3z"/>
		<path class="st1" d="M161.1,219.2c0.1,3.1,2.6,5.6,5.7,5.5c3.1-0.1,5.6-2.6,5.5-5.7c-0.1-3.1-2.6-5.6-5.7-5.5
			C163.5,213.6,161.1,216.1,161.1,219.2C161.1,219.2,161.1,219.2,161.1,219.2z"/>
		<path class="st2" d="M158.2,229c0-0.9-0.8-1.6-1.6-1.6c-0.9,0-1.6,0.8-1.6,1.6c0,0.9,0.8,1.6,1.6,1.6
			C157.5,230.6,158.2,229.9,158.2,229z"/>
		<path class="st1" d="M265.6,103.9c1.6-2.7,0.7-6.1-2-7.7c-2.7-1.6-6.1-0.7-7.7,2c-1.6,2.7-0.7,6.1,2,7.7c0,0,0,0,0,0
			C260.6,107.5,264,106.6,265.6,103.9z"/>
		<path class="st2" d="M273.1,97.1c-0.4,0.8-0.2,1.8,0.6,2.2s1.8,0.2,2.2-0.6c0.4-0.8,0.2-1.8-0.6-2.2
			C274.6,96,273.6,96.3,273.1,97.1z"/>
		<polygon class="st3" points="94.8,80.6 110.7,78.6 104.4,93.4 		"/>
		<path class="st2" d="M105.7,72.4c-0.7,0.5-1.7,0.4-2.3-0.3s-0.4-1.7,0.3-2.3c0.7-0.5,1.7-0.4,2.3,0.3c0,0,0,0,0,0
			C106.5,70.8,106.4,71.8,105.7,72.4C105.7,72.4,105.7,72.4,105.7,72.4z"/>
		<polyline class="st8" points="284.9,57.8 282.4,47.2 292.9,44 		"/>
		<path class="st2" d="M290.7,63c-0.8-0.4-1-1.4-0.6-2.2c0.4-0.8,1.4-1,2.2-0.6c0.8,0.4,1,1.4,0.6,2.2
			C292.4,63.2,291.4,63.4,290.7,63C290.7,63,290.7,63,290.7,63z"/>
		<path class="st2" d="M280.2,32c-0.8-0.4-1-1.4-0.6-2.2c0.4-0.8,1.4-1,2.2-0.6c0.8,0.4,1,1.4,0.6,2.2C282,32.2,281,32.4,280.2,32
			C280.2,32,280.2,32,280.2,32z"/>
		<path class="st2" d="M275.4,52.3c-0.8-0.4-1-1.4-0.6-2.2c0.4-0.8,1.4-1,2.2-0.6c0.8,0.4,1,1.4,0.6,2.2
			C277.1,52.5,276.1,52.8,275.4,52.3C275.4,52.4,275.4,52.4,275.4,52.3z"/>
		<polyline class="st8" points="403.9,36.8 410.4,45.5 402.2,52.7 		"/>
		<path class="st2" d="M396.5,34.4c0.9,0.1,1.5,0.9,1.4,1.8c-0.1,0.9-0.9,1.5-1.8,1.4c-0.9-0.1-1.5-0.9-1.4-1.8
			C394.8,34.9,395.6,34.3,396.5,34.4C396.5,34.4,396.5,34.4,396.5,34.4z"/>
		<path class="st2" d="M414.8,37.9c0.9,0.1,1.5,0.9,1.4,1.8c-0.1,0.8-0.9,1.4-1.7,1.4c-0.9-0.1-1.6-0.8-1.5-1.7
			c0.1-0.9,0.8-1.6,1.7-1.5C414.7,37.9,414.8,37.9,414.8,37.9z"/>
		<line class="st7" x1="215" y1="356.1" x2="201.1" y2="360.1"/>
		<path class="st2" d="M205.6,369.3c0.9-0.2,1.3-1.1,1.1-2c-0.2-0.9-1.1-1.3-2-1.1c-0.8,0.2-1.3,1.1-1.1,2
			C203.8,369,204.7,369.5,205.6,369.3z"/>
		<line class="st6" x1="168.1" y1="48.8" x2="180.6" y2="51.2"/>
		<line class="st6" x1="166.8" y1="55" x2="179.4" y2="57.5"/>
		<path class="st2" d="M183.3,45.1c-0.2,0.9,0.4,1.7,1.3,1.9s1.7-0.4,1.9-1.3c0.2-0.9-0.4-1.7-1.3-1.9
			C184.3,43.6,183.4,44.2,183.3,45.1C183.3,45.1,183.3,45.1,183.3,45.1z"/>
		<path class="st2" d="M170.9,63.9c-0.2,0.9,0.4,1.7,1.3,1.9c0.9,0.2,1.7-0.4,1.9-1.3c0.2-0.9-0.4-1.7-1.3-1.9
			C171.9,62.4,171,63,170.9,63.9C170.9,63.8,170.9,63.9,170.9,63.9z"/>
		<path class="st1" d="M210.1,195.5c-3.1,0.3-5.3,3.1-5,6.2c0.3,3.1,3.1,5.3,6.2,5c3.1-0.3,5.3-3.1,5-6.1
			C216,197.5,213.2,195.2,210.1,195.5C210.1,195.5,210.1,195.5,210.1,195.5z"/>
		<path class="st2" d="M200.1,193.4c0.9-0.1,1.5-0.9,1.4-1.8c-0.1-0.9-0.9-1.5-1.8-1.4c-0.8,0.1-1.4,0.9-1.4,1.7
			C198.5,192.9,199.3,193.5,200.1,193.4C200.1,193.5,200.1,193.5,200.1,193.4z"/>
		
			<rect x="53.1" y="316" transform="matrix(0.7193 -0.6947 0.6947 0.7193 -207.2828 131.8322)" class="st5" width="12.8" height="12.8"/>
		<path class="st2" d="M67.7,331.6c-0.6-0.6-1.6-0.6-2.3,0c-0.6,0.6-0.6,1.6,0,2.3s1.6,0.6,2.3,0c0,0,0,0,0,0
			C68.4,333.3,68.4,332.3,67.7,331.6z"/>
		<path class="st2" d="M61.8,301.6c-0.6-0.6-1.6-0.6-2.3,0c-0.6,0.6-0.6,1.6,0,2.3c0.6,0.6,1.6,0.6,2.3,0c0,0,0,0,0,0
			C62.4,303.3,62.4,302.2,61.8,301.6z"/>
		<polyline class="st8" points="423.1,299.7 433.8,302 432.3,312.8 		"/>
		<path class="st2" d="M415.9,302.7c0.7-0.5,1.7-0.3,2.2,0.4c0.5,0.7,0.3,1.7-0.4,2.2c-0.7,0.5-1.7,0.3-2.2-0.4c0,0,0,0,0,0
			C415,304.2,415.2,303.2,415.9,302.7z"/>
		<path class="st2" d="M432.1,293.4c0.7-0.5,1.7-0.3,2.2,0.4c0.5,0.7,0.3,1.7-0.4,2.2c-0.7,0.5-1.7,0.3-2.2-0.4
			C431.2,294.9,431.4,293.9,432.1,293.4z"/>
		<polyline class="st8" points="23.1,299.7 33.8,302 32.3,312.8 		"/>
		<path class="st2" d="M15.9,302.7c0.7-0.5,1.7-0.3,2.2,0.4c0.5,0.7,0.3,1.7-0.4,2.2s-1.7,0.3-2.2-0.4c0,0,0,0,0,0
			C15,304.2,15.2,303.2,15.9,302.7z"/>
		<path class="st2" d="M48.5,306.4c0.7-0.5,1.7-0.3,2.2,0.4c0.5,0.7,0.3,1.7-0.4,2.2c-0.7,0.5-1.7,0.3-2.2-0.4c0,0,0,0,0,0
			C47.6,307.9,47.8,306.9,48.5,306.4z"/>
		<path class="st2" d="M32.1,293.4c0.7-0.5,1.7-0.3,2.2,0.4c0.5,0.7,0.3,1.7-0.4,2.2c-0.7,0.5-1.7,0.3-2.2-0.4
			C31.2,294.9,31.4,293.9,32.1,293.4z"/>
		<polyline class="st8" points="181.6,130.5 170.7,129.7 170.7,118.8 		"/>
		<path class="st2" d="M188.3,126.5c-0.6,0.6-1.7,0.6-2.3-0.1c-0.6-0.6-0.6-1.7,0.1-2.3c0.6-0.6,1.7-0.6,2.3,0.1c0,0,0,0,0,0
			C189,124.8,188.9,125.9,188.3,126.5z"/>
		<path class="st2" d="M155.5,127.3c-0.6,0.6-1.7,0.6-2.3-0.1c-0.6-0.6-0.6-1.7,0.1-2.3c0.6-0.6,1.7-0.6,2.3,0.1c0,0,0,0,0,0
			C156.2,125.7,156.2,126.7,155.5,127.3C155.5,127.3,155.5,127.3,155.5,127.3z"/>
		<path class="st2" d="M173.6,138c-0.6,0.6-1.7,0.6-2.3-0.1c-0.6-0.6-0.6-1.7,0.1-2.3c0.6-0.6,1.7-0.6,2.3,0.1c0,0,0,0,0,0
			C174.3,136.4,174.2,137.4,173.6,138C173.6,138,173.6,138,173.6,138z"/>
		<polyline class="st8" points="98.5,267.5 92,258.7 100.2,251.6 		"/>
		<path class="st2" d="M105.8,269.9c-0.9-0.1-1.5-0.9-1.4-1.8c0.1-0.9,0.9-1.5,1.8-1.4c0.9,0.1,1.5,0.9,1.4,1.8
			C107.5,269.3,106.7,270,105.8,269.9C105.9,269.9,105.9,269.9,105.8,269.9z"/>
		<path class="st2" d="M83.8,245.6c-0.9-0.1-1.5-0.9-1.4-1.8s0.9-1.5,1.8-1.4c0.9,0.1,1.5,0.9,1.4,1.8c0,0,0,0,0,0
			C85.5,245.1,84.7,245.7,83.8,245.6z"/>
		<path class="st2" d="M87.5,266.2c-0.9-0.1-1.5-0.9-1.4-1.8c0.1-0.9,0.9-1.5,1.8-1.4c0.9,0.1,1.5,0.9,1.4,1.8
			C89.2,265.7,88.4,266.3,87.5,266.2C87.5,266.2,87.5,266.2,87.5,266.2z"/>
		<polygon class="st3" points="283,201.5 293,189 298.8,204 		"/>
		<path class="st2" d="M285.1,188c-0.1,0.9-1,1.5-1.8,1.3c-0.9-0.1-1.5-1-1.3-1.8c0.1-0.9,1-1.5,1.8-1.3
			C284.6,186.3,285.2,187.1,285.1,188C285.1,188,285.1,188,285.1,188z"/>
		<polyline class="st8" points="129.8,390 131.4,379.2 142.3,380 		"/>
		<path class="st2" d="M133.4,397c-0.6-0.7-0.5-1.7,0.2-2.3s1.7-0.5,2.3,0.2c0.6,0.7,0.5,1.7-0.2,2.3
			C134.9,397.8,133.9,397.7,133.4,397z"/>
		<path class="st2" d="M134.8,364.2c-0.6-0.7-0.5-1.7,0.2-2.3c0.7-0.6,1.7-0.5,2.3,0.2c0.6,0.7,0.5,1.7-0.2,2.3c0,0,0,0,0,0
			C136.3,365,135.3,364.9,134.8,364.2z"/>
		<path class="st2" d="M122.9,381.5c-0.6-0.7-0.4-1.7,0.2-2.3s1.7-0.4,2.3,0.2c0.6,0.7,0.4,1.7-0.2,2.3
			C124.5,382.3,123.5,382.2,122.9,381.5C122.9,381.5,122.9,381.5,122.9,381.5z"/>
		<path class="st1" d="M65.1,25.6c-1.9,2.4-5.4,2.9-7.9,1c-2.4-1.9-2.9-5.4-1-7.9c1.9-2.4,5.4-2.9,7.9-1
			C66.6,19.6,67,23.1,65.1,25.6C65.1,25.6,65.1,25.6,65.1,25.6z"/>
		<path class="st2" d="M61.6,35.1c0.5-0.7,1.6-0.8,2.3-0.3c0.7,0.5,0.8,1.6,0.3,2.3c-0.5,0.7-1.6,0.8-2.3,0.3
			C61.2,36.9,61.1,35.8,61.6,35.1C61.6,35.1,61.6,35.1,61.6,35.1z"/>
		<line class="st7" x1="117.9" y1="46.7" x2="103.5" y2="45.5"/>
		<path class="st2" d="M124.2,37.3c0.9,0.1,1.7-0.6,1.7-1.5s-0.6-1.7-1.5-1.7s-1.7,0.6-1.7,1.5c0,0,0,0,0,0
			C122.7,36.5,123.3,37.3,124.2,37.3z"/>
		<path class="st2" d="M104.3,55.7c0.9,0,1.6-0.7,1.6-1.6c0-0.8-0.6-1.5-1.4-1.6c-0.9-0.1-1.7,0.5-1.8,1.3s0.5,1.7,1.3,1.8
			C104.2,55.7,104.3,55.7,104.3,55.7z"/>
		<line class="st6" x1="83.4" y1="353.5" x2="77.8" y2="342"/>
		<line class="st6" x1="77.7" y1="356.3" x2="72" y2="344.8"/>
		<path class="st2" d="M83,337.8c-0.8,0.4-1.8,0.1-2.2-0.7c-0.4-0.8-0.1-1.8,0.7-2.2c0.8-0.4,1.8-0.1,2.2,0.7c0,0,0,0,0,0
			C84.1,336.5,83.8,337.4,83,337.8z"/>
		<path class="st2" d="M68.1,354.7c-0.8,0.4-1.8,0.1-2.1-0.8c-0.4-0.8-0.1-1.8,0.8-2.1c0.8-0.4,1.8-0.1,2.1,0.7
			C69.2,353.3,68.9,354.3,68.1,354.7C68.1,354.7,68.1,354.7,68.1,354.7z"/>
		
			<rect x="83.6" y="146.9" transform="matrix(2.251286e-02 -0.9997 0.9997 2.251286e-02 -65.2847 239.8976)" class="st5" width="12.8" height="12.8"/>
		<path class="st2" d="M102.4,153.1c-0.9,0-1.6-0.8-1.6-1.6c0-0.9,0.8-1.6,1.6-1.6c0.9,0,1.6,0.8,1.6,1.6
			C104,152.4,103.3,153.1,102.4,153.1C102.4,153.1,102.4,153.1,102.4,153.1z"/>
		<path class="st2" d="M76.2,169.1c-0.9,0-1.6-0.8-1.6-1.6s0.8-1.6,1.6-1.6c0.9,0,1.6,0.8,1.6,1.6c0,0,0,0,0,0
			C77.9,168.4,77.1,169.1,76.2,169.1z"/>
		<polyline class="st8" points="332.2,133.1 326.9,142.6 317,138 		"/>
		<path class="st2" d="M331.4,125.4c0.3,0.8-0.1,1.8-1,2.1s-1.8-0.1-2.1-1c0,0,0,0,0-0.1c-0.3-0.9,0.2-1.7,1.1-2
			C330.2,124.1,331.1,124.6,331.4,125.4z"/>
		<path class="st2" d="M318.3,155.4c0.3,0.8-0.1,1.8-1,2.1s-1.8-0.1-2.1-1c-0.3-0.8,0.1-1.8,1-2.1c0,0,0,0,0.1,0
			C317.1,154.2,318,154.6,318.3,155.4z"/>
		<path class="st2" d="M335.6,143.6c0.3,0.8-0.1,1.8-1,2.1s-1.8-0.1-2.1-1c-0.3-0.8,0.1-1.8,1-2.1c0,0,0,0,0.1,0
			C334.4,142.3,335.3,142.8,335.6,143.6z"/>
		
			<rect x="237.4" y="27.6" transform="matrix(0.848 -0.5299 0.5299 0.848 19.0349 134.339)" class="st5" width="12.8" height="12.8"/>
		<path class="st2" d="M249.9,44.7c-0.5-0.8-1.5-1-2.2-0.5c-0.8,0.5-1,1.5-0.5,2.2c0.5,0.8,1.5,1,2.2,0.5
			C250.1,46.4,250.4,45.4,249.9,44.7z"/>
		<path class="st2" d="M250.3,14.1c-0.4-0.8-1.4-1.1-2.2-0.6c-0.8,0.4-1.1,1.4-0.6,2.2c0,0,0.1,0.1,0.1,0.1c0.5,0.7,1.5,1,2.2,0.5
			C250.5,15.8,250.8,14.8,250.3,14.1C250.3,14.1,250.3,14.1,250.3,14.1z"/>
		
			<rect x="56.4" y="272.9" transform="matrix(0.9945 -0.1045 0.1045 0.9945 -28.8476 8.0982)" class="st5" width="12.8" height="12.8"/>
		<path class="st2" d="M75.2,278.5c-0.9,0.1-1.5,0.9-1.4,1.8c0.1,0.9,0.9,1.5,1.8,1.4c0.9-0.1,1.5-0.9,1.4-1.8c0,0,0,0,0,0
			C76.8,279,76,278.4,75.2,278.5C75.2,278.4,75.2,278.4,75.2,278.5z"/>
		<path class="st2" d="M47.8,264.7c-0.9,0.1-1.5,0.9-1.4,1.8c0.1,0.9,0.9,1.5,1.8,1.4c0.9-0.1,1.5-0.9,1.4-1.8c0,0,0,0,0,0
			C49.5,265.3,48.7,264.6,47.8,264.7C47.8,264.7,47.8,264.7,47.8,264.7z"/>
		<line class="st6" x1="241.9" y1="263.3" x2="253.4" y2="257.5"/>
		<line class="st6" x1="244.9" y1="269" x2="256.2" y2="263.1"/>
		<path class="st2" d="M251.7,251c0.4,0.8,1.4,1.1,2.2,0.7c0.8-0.4,1.1-1.4,0.7-2.2c-0.4-0.8-1.4-1.1-2.2-0.7c0,0,0,0,0,0
			C251.6,249.2,251.3,250.2,251.7,251z"/>
		<path class="st2" d="M253.4,273.4c0.4,0.8,1.4,1.1,2.2,0.7c0.8-0.4,1.1-1.4,0.7-2.2s-1.4-1.1-2.2-0.7
			C253.4,271.7,253,272.6,253.4,273.4L253.4,273.4z"/>
		<path class="st1" d="M214,290.4c2.9,1,6.1-0.7,7.1-3.6c1-2.9-0.7-6.1-3.6-7.1c-2.9-1-6.1,0.7-7.1,3.6
			C209.4,286.3,211.1,289.5,214,290.4C214,290.4,214,290.4,214,290.4z"/>
		<path class="st2" d="M222.2,296.4c-0.8-0.3-1.7,0.2-2,1c-0.3,0.8,0.1,1.8,1,2.1c0.8,0.3,1.8-0.1,2.1-1
			C223.6,297.7,223.1,296.7,222.2,296.4C222.3,296.4,222.3,296.4,222.2,296.4z"/>
		<path class="st1" d="M101.7,397.3c-2.9-1.1-4.3-4.4-3.2-7.2c1.1-2.9,4.4-4.3,7.2-3.2c2.9,1.1,4.3,4.3,3.2,7.2
			C107.8,397,104.6,398.5,101.7,397.3C101.7,397.3,101.7,397.3,101.7,397.3z"/>
		<path class="st2" d="M91.5,396.8c0.8,0.3,1.3,1.2,0.9,2.1c-0.3,0.8-1.2,1.3-2.1,0.9c-0.8-0.3-1.3-1.2-0.9-2.1c0,0,0,0,0,0
			C89.8,396.9,90.7,396.5,91.5,396.8z"/>
		<polyline class="st8" points="138.4,307.9 132.7,298.5 123,303.5 		"/>
		<path class="st2" d="M137.8,315.6c0.2-0.9-0.2-1.7-1.1-2c-0.9-0.2-1.7,0.2-2,1.1c-0.2,0.9,0.2,1.7,1.1,2
			C136.7,317,137.6,316.5,137.8,315.6C137.8,315.7,137.8,315.6,137.8,315.6z"/>
		<path class="st2" d="M123.8,286c0.2-0.9-0.3-1.7-1.1-2s-1.7,0.3-2,1.1c-0.2,0.9,0.3,1.7,1.1,2C122.6,287.4,123.5,286.9,123.8,286
			C123.7,286,123.7,286,123.8,286z"/>
		<path class="st2" d="M141.4,297.3c0.2-0.9-0.3-1.7-1.1-2s-1.7,0.3-2,1.1c-0.2,0.9,0.3,1.7,1.1,2
			C140.3,298.7,141.2,298.2,141.4,297.3z"/>
		
			<rect x="295.7" y="272.1" transform="matrix(0.7193 -0.6947 0.6947 0.7193 -108.7152 287.9983)" class="st5" width="12.8" height="12.8"/>
		<path class="st2" d="M310.3,287.7c-0.6-0.6-1.6-0.6-2.3,0c-0.6,0.6-0.6,1.6,0,2.3c0.6,0.6,1.6,0.6,2.3,0
			C310.9,289.4,310.9,288.3,310.3,287.7z"/>
		<path class="st2" d="M304.3,257.7c-0.6-0.6-1.6-0.6-2.3,0c-0.6,0.6-0.6,1.6,0,2.3c0.6,0.6,1.6,0.6,2.3,0
			C304.9,259.3,304.9,258.3,304.3,257.7z"/>
		<line class="st7" x1="215.6" y1="246.2" x2="223.9" y2="258"/>
		<path class="st2" d="M220.6,236c-0.5-0.7-0.3-1.7,0.4-2.2c0.7-0.5,1.7-0.3,2.2,0.4c0.5,0.7,0.3,1.7-0.4,2.2c0,0,0,0,0,0
			C222.1,236.9,221.1,236.7,220.6,236z"/>
		<path class="st2" d="M214.6,262.4c-0.5-0.7-0.3-1.7,0.4-2.2c0.7-0.5,1.7-0.3,2.2,0.4c0.5,0.7,0.3,1.7-0.4,2.2
			C216.1,263.3,215.1,263.1,214.6,262.4z"/>
		<line class="st6" x1="135.8" y1="174" x2="125.2" y2="166.9"/>
		<line class="st6" x1="132.2" y1="179.4" x2="121.6" y2="172.2"/>
		<path class="st2" d="M127.6,160.7c-0.5,0.7-1.5,0.9-2.2,0.4c-0.7-0.5-0.9-1.5-0.4-2.2c0.5-0.7,1.5-0.9,2.2-0.4c0,0,0,0,0,0
			C127.9,158.9,128.1,159.9,127.6,160.7C127.6,160.7,127.6,160.7,127.6,160.7z"/>
		<path class="st2" d="M123.2,182.7c-0.5,0.7-1.5,0.9-2.2,0.4c-0.7-0.5-0.9-1.5-0.4-2.2c0.5-0.7,1.5-0.9,2.2-0.4c0,0,0,0,0,0
			C123.5,181,123.6,182,123.2,182.7C123.2,182.7,123.2,182.7,123.2,182.7z"/>
		<polygon class="st3" points="168.1,17.7 178,30.3 184,15.5 		"/>
		<path class="st2" d="M170,31.2c-0.1-0.9-1-1.5-1.8-1.4s-1.5,1-1.4,1.8c0.1,0.9,1,1.5,1.8,1.4c0,0,0,0,0,0
			C169.5,32.9,170.1,32,170,31.2z"/>
		<polygon class="st3" points="44.3,127.5 54.1,140.1 60.1,125.3 		"/>
		<path class="st2" d="M46.2,141c-0.1-0.9-0.9-1.5-1.8-1.4c-0.9,0.1-1.5,0.9-1.4,1.8c0.1,0.9,0.9,1.5,1.8,1.4c0,0,0,0,0,0
			C45.7,142.7,46.3,141.9,46.2,141z"/>
		<polygon class="st3" points="134.2,144.1 127.2,129.7 118.3,142.9 		"/>
		<path class="st2" d="M135.2,130.5c-0.1,0.9,0.6,1.7,1.5,1.7c0.9,0.1,1.7-0.6,1.7-1.5c0.1-0.9-0.6-1.7-1.5-1.7c0,0,0,0,0,0
			C136,128.9,135.3,129.6,135.2,130.5C135.2,130.5,135.2,130.5,135.2,130.5z"/>
		<polygon class="st3" points="268.1,232.6 284.1,232.3 276.3,246.3 		"/>
		<path class="st2" d="M279.8,225.6c-0.8,0.5-1.8,0.2-2.2-0.6c-0.5-0.8-0.2-1.8,0.6-2.2c0.8-0.5,1.8-0.2,2.2,0.5
			C280.8,224.1,280.5,225.1,279.8,225.6z"/>
		
			<rect x="382.9" y="337.1" transform="matrix(0.9009 -0.434 0.434 0.9009 -110.489 202.9626)" class="st5" width="12.8" height="12.8"/>
		<path class="st2" d="M378.4,349.2c0.8-0.4,1.8-0.1,2.1,0.8s0.1,1.8-0.8,2.1c-0.8,0.4-1.8,0.1-2.1-0.7
			C377.2,350.5,377.6,349.6,378.4,349.2C378.4,349.2,378.4,349.2,378.4,349.2z"/>
		<path class="st2" d="M394.4,323.1c0.8-0.4,1.8-0.1,2.1,0.8s0.1,1.8-0.8,2.1c-0.8,0.4-1.8,0.1-2.1-0.7
			C393.3,324.5,393.6,323.5,394.4,323.1C394.4,323.1,394.4,323.1,394.4,323.1z"/>
		<polyline class="st8" points="49,89.7 59.8,88.2 62.1,98.9 		"/>
		<path class="st2" d="M43.3,95c0.5-0.7,1.5-0.9,2.2-0.4c0.7,0.5,0.9,1.5,0.4,2.2s-1.5,0.9-2.2,0.4c0,0,0,0,0,0
			C43,96.7,42.8,95.7,43.3,95z"/>
		<path class="st2" d="M75.2,87.3c0.5-0.7,1.5-0.9,2.2-0.4s0.9,1.5,0.4,2.2c-0.5,0.7-1.5,0.9-2.2,0.4c0,0,0,0,0,0
			C74.9,89.1,74.7,88.1,75.2,87.3C75.2,87.3,75.2,87.3,75.2,87.3z"/>
		<path class="st2" d="M55.3,80.7c0.5-0.7,1.5-0.9,2.2-0.4c0.7,0.5,0.9,1.5,0.4,2.2s-1.5,0.9-2.2,0.4c0,0,0,0,0,0
			C55,82.4,54.8,81.4,55.3,80.7z"/>
		
			<rect x="214.2" y="65.5" transform="matrix(0.9744 -0.225 0.225 0.9744 -10.5089 51.4748)" class="st5" width="12.8" height="12.8"/>
		<path class="st2" d="M232.8,69.6c-0.9,0.2-1.4,1.1-1.2,1.9c0.2,0.9,1.1,1.4,1.9,1.2c0.9-0.2,1.4-1.1,1.2-1.9c0,0,0,0,0,0
			C234.5,69.9,233.6,69.4,232.8,69.6z"/>
		<path class="st2" d="M204,59.2c-0.9,0.2-1.4,1.1-1.2,1.9c0.2,0.9,1.1,1.4,1.9,1.2s1.4-1.1,1.2-1.9c0,0,0,0,0,0
			C205.7,59.6,204.9,59,204,59.2z"/>
		<polyline class="st4" points="1,177 10.7,175.2 12.6,184.8 22.2,183 24.1,192.6 		"/>
		<path class="st2" d="M24.3,170.8c0.9-0.2,1.7,0.4,1.9,1.3c0.2,0.9-0.4,1.7-1.3,1.9c-0.9,0.2-1.7-0.4-1.9-1.3
			C22.8,171.9,23.4,171,24.3,170.8C24.3,170.8,24.3,170.8,24.3,170.8z"/>
		<path class="st2" d="M16.1,192.5c0.9-0.2,1.7,0.4,1.9,1.3c0.2,0.9-0.4,1.7-1.3,1.9c-0.9,0.2-1.7-0.4-1.9-1.3c0,0,0,0,0,0
			C14.6,193.6,15.2,192.7,16.1,192.5z"/>
		<path class="st2" d="M1.9,189.3c0.9-0.2,1.7,0.4,1.9,1.3s-0.4,1.7-1.3,1.9c-0.9,0.2-1.7-0.4-1.9-1.3C0.4,190.3,1,189.4,1.9,189.3
			C1.9,189.3,1.9,189.3,1.9,189.3z"/>
		<polyline class="st4" points="401,177 410.7,175.2 412.6,184.8 422.2,183 424.1,192.6 		"/>
		<path class="st2" d="M424.3,170.8c0.9-0.2,1.7,0.4,1.9,1.3s-0.4,1.7-1.3,1.9c-0.9,0.2-1.7-0.4-1.9-1.3
			C422.8,171.9,423.4,171,424.3,170.8C424.3,170.8,424.3,170.8,424.3,170.8z"/>
		<path class="st2" d="M416.1,192.5c0.9-0.2,1.7,0.4,1.9,1.3c0.2,0.9-0.4,1.7-1.3,1.9c-0.9,0.2-1.7-0.4-1.9-1.3c0,0,0,0,0,0
			C414.6,193.6,415.2,192.7,416.1,192.5z"/>
		<path class="st2" d="M401.9,189.3c0.9-0.2,1.7,0.4,1.9,1.3s-0.4,1.7-1.3,1.9c-0.9,0.2-1.7-0.4-1.9-1.3
			C400.4,190.3,401,189.4,401.9,189.3C401.9,189.3,401.9,189.3,401.9,189.3z"/>
		
			<rect x="254.1" y="349.2" transform="matrix(0.7986 -0.6018 0.6018 0.7986 -161.5696 228.3673)" class="st5" width="12.8" height="12.8"/>
		<path class="st2" d="M250.9,363.4c0.7-0.5,1.7-0.4,2.3,0.3s0.4,1.7-0.3,2.3l0,0c-0.7,0.5-1.7,0.4-2.2-0.3c0,0,0,0,0,0
			C250.1,365,250.2,364,250.9,363.4z"/>
		<path class="st2" d="M261.5,334.7c0.7-0.5,1.7-0.4,2.3,0.3c0.5,0.7,0.4,1.7-0.3,2.3c-0.7,0.5-1.7,0.4-2.2-0.3
			C260.7,336.3,260.8,335.3,261.5,334.7C261.5,334.7,261.5,334.7,261.5,334.7z"/>
		<line class="st6" x1="306.6" y1="390.1" x2="305.2" y2="377.4"/>
		<line class="st6" x1="300.2" y1="390.8" x2="298.9" y2="378.1"/>
		<path class="st2" d="M311.5,375.3c-0.9,0.1-1.7-0.6-1.8-1.4c-0.1-0.9,0.6-1.7,1.4-1.8c0.9-0.1,1.7,0.6,1.8,1.4
			C313.1,374.4,312.5,375.2,311.5,375.3C311.6,375.3,311.6,375.3,311.5,375.3z"/>
		<path class="st2" d="M291.8,386c-0.9,0.1-1.7-0.5-1.8-1.4c-0.1-0.9,0.5-1.7,1.4-1.8c0.9-0.1,1.7,0.5,1.8,1.4c0,0,0,0,0,0
			C293.3,385.1,292.7,385.9,291.8,386z"/>
		<path class="st1" d="M196.7,386.6c0.6,3-1.4,6-4.4,6.6c-3,0.6-6-1.4-6.6-4.4c-0.6-3,1.4-6,4.4-6.6c0,0,0,0,0,0
			C193.2,381.6,196.1,383.6,196.7,386.6z"/>
		<path class="st2" d="M201.6,395.6c-0.2-0.9,0.4-1.7,1.3-1.9c0.9-0.2,1.7,0.4,1.9,1.3c0.2,0.9-0.4,1.7-1.3,1.9c0,0,0,0,0,0
			C202.6,397,201.8,396.4,201.6,395.6z"/>
		<line class="st7" x1="420.4" y1="363.3" x2="425.1" y2="376.9"/>
		<path class="st2" d="M428,354.9c-0.3-0.8,0.1-1.8,1-2.1c0.8-0.3,1.8,0.1,2.1,1c0.3,0.8-0.1,1.8-1,2.1c0,0,0,0-0.1,0
			C429.2,356.1,428.3,355.7,428,354.9z"/>
		<path class="st2" d="M415,378.6c-0.3-0.8,0.1-1.8,1-2.1c0.8-0.3,1.8,0.1,2.1,1c0.3,0.8-0.1,1.8-1,2.1c0,0,0,0-0.1,0
			C416.2,379.9,415.3,379.4,415,378.6z"/>
		<line class="st7" x1="20.4" y1="363.3" x2="25.1" y2="376.9"/>
		<path class="st2" d="M28,354.9c-0.3-0.8,0.1-1.8,1-2.1c0.8-0.3,1.8,0.1,2.1,1c0.3,0.8-0.1,1.8-1,2.1c0,0,0,0-0.1,0
			C29.2,356.1,28.3,355.7,28,354.9z"/>
		<path class="st2" d="M15,378.6c-0.3-0.8,0.1-1.8,1-2.1c0.8-0.3,1.8,0.1,2.1,1c0.3,0.8-0.1,1.8-1,2.1c0,0,0,0-0.1,0
			C16.2,379.9,15.3,379.4,15,378.6z"/>
		<line class="st6" x1="392.7" y1="207.6" x2="384" y2="217"/>
		<line class="st6" x1="397.4" y1="212" x2="388.6" y2="221.3"/>
		<path class="st2" d="M378.2,213.6c0.7,0.6,0.7,1.6,0.1,2.3c-0.6,0.7-1.6,0.7-2.3,0.1c-0.7-0.6-0.7-1.6-0.1-2.3c0,0,0,0,0,0
			C376.5,213,377.6,213,378.2,213.6z"/>
		<path class="st2" d="M399.3,221.5c0.7,0.6,0.7,1.6,0.1,2.3c-0.6,0.7-1.6,0.7-2.3,0.1c-0.7-0.6-0.7-1.6-0.1-2.3c0,0,0,0,0,0
			C397.6,220.9,398.6,220.9,399.3,221.5z"/>
		<line class="st7" x1="365.7" y1="145.9" x2="365.7" y2="160.3"/>
		<path class="st2" d="M355.8,140.4c0-0.9-0.7-1.6-1.6-1.6s-1.6,0.7-1.6,1.6s0.7,1.6,1.6,1.6c0,0,0,0,0,0
			C355.1,142,355.8,141.3,355.8,140.4z"/>
		<circle class="st2" cx="374.2" cy="158.6" r="1.6"/>
		<path class="st1" d="M88.2,223.1c3.1-0.3,5.4-3,5.1-6.1c-0.3-3.1-3-5.4-6.1-5.1c-3.1,0.3-5.4,3-5.1,6.1
			C82.3,221.1,85.1,223.4,88.2,223.1C88.1,223.1,88.1,223.1,88.2,223.1z"/>
		<path class="st2" d="M98.1,225.4c-0.9,0.1-1.5,0.9-1.5,1.7c0.1,0.9,0.9,1.5,1.7,1.5c0.9-0.1,1.5-0.9,1.5-1.7c0,0,0,0,0,0
			C99.8,226,99,225.3,98.1,225.4C98.1,225.4,98.1,225.4,98.1,225.4z"/>
		<polyline class="st4" points="158.6,349.5 166.7,355.1 172.4,347.1 180.4,352.7 186.1,344.7 		"/>
		<path class="st2" d="M177.4,364.6c0.7,0.5,1.7,0.3,2.2-0.4s0.3-1.7-0.4-2.2c-0.7-0.5-1.7-0.3-2.2,0.4c0,0,0,0,0,0
			C176.5,363.1,176.6,364.1,177.4,364.6z"/>
		<path class="st2" d="M178.7,341.5c0.7,0.5,1.7,0.3,2.2-0.4s0.3-1.7-0.4-2.2c-0.7-0.5-1.7-0.3-2.2,0.4c0,0,0,0,0,0
			C177.8,340,178,341,178.7,341.5z"/>
		<path class="st2" d="M156.3,333.6c0.7,0.5,1.7,0.3,2.2-0.4s0.3-1.7-0.4-2.2c-0.7-0.5-1.7-0.3-2.2,0.4c0,0,0,0,0,0
			C155.4,332.1,155.6,333.1,156.3,333.6z"/>
		
			<rect x="324.3" y="173.5" transform="matrix(0.9788 -0.205 0.205 0.9788 -29.8539 71.6147)" class="st5" width="12.8" height="12.8"/>
		<path class="st2" d="M332.8,192c-0.2-0.9-1-1.4-1.9-1.3c-0.9,0.2-1.4,1-1.3,1.9c0.2,0.9,1,1.4,1.9,1.3c0,0,0,0,0,0
			C332.4,193.7,332.9,192.9,332.8,192z"/>
		<path class="st2" d="M343.7,163.4c-0.2-0.9-1-1.4-1.9-1.2s-1.4,1-1.2,1.9c0.2,0.9,1,1.4,1.9,1.2
			C343.3,165.2,343.8,164.3,343.7,163.4z"/>
		<line class="st7" x1="271.4" y1="152.7" x2="262" y2="163.6"/>
		<path class="st2" d="M267.6,142c0.6-0.7,0.5-1.7-0.2-2.3c-0.7-0.6-1.7-0.5-2.3,0.2c-0.6,0.7-0.5,1.7,0.2,2.3c0,0,0,0,0,0
			C266,142.7,267,142.7,267.6,142C267.6,142,267.6,142,267.6,142z"/>
		<path class="st2" d="M270.7,168.9c0.6-0.7,0.5-1.7-0.2-2.3c-0.7-0.6-1.7-0.5-2.3,0.2c-0.6,0.7-0.5,1.7,0.2,2.3c0,0,0,0,0,0
			C269.1,169.6,270.1,169.6,270.7,168.9C270.7,168.9,270.7,168.9,270.7,168.9z"/>
		<line class="st7" x1="30.3" y1="120.1" x2="20.9" y2="131"/>
		<path class="st2" d="M26.4,109.4c0.6-0.7,0.5-1.7-0.1-2.2c0,0,0,0,0,0c-0.7-0.6-1.7-0.5-2.3,0.2s-0.5,1.7,0.2,2.3
			S25.8,110.1,26.4,109.4C26.4,109.4,26.4,109.4,26.4,109.4z"/>
		<path class="st2" d="M29.6,136.3c0.6-0.7,0.5-1.7-0.2-2.3c-0.7-0.6-1.7-0.5-2.3,0.2c-0.6,0.7-0.5,1.7,0.2,2.3c0,0,0,0,0,0
			C28,137,29,137,29.6,136.3C29.6,136.3,29.6,136.3,29.6,136.3z"/>
		<path class="st1" d="M335.4,346.1c3,0.6,6-1.4,6.6-4.4s-1.4-6-4.4-6.6c-3-0.6-6,1.4-6.6,4.4C330.4,342.5,332.4,345.5,335.4,346.1
			C335.4,346.1,335.4,346.1,335.4,346.1z"/>
		<path class="st2" d="M344.4,351c-0.9-0.2-1.7,0.4-1.9,1.3c-0.2,0.9,0.4,1.7,1.3,1.9c0.9,0.2,1.7-0.4,1.9-1.3
			C345.8,352,345.2,351.2,344.4,351C344.4,351,344.4,351,344.4,351z"/>
		<path class="st1" d="M422.5,88.4c2.9-1,4.5-4.2,3.5-7.1s-4.2-4.5-7.1-3.5c-2.9,1-4.5,4.2-3.5,7.1
			C416.4,87.9,419.6,89.4,422.5,88.4z"/>
		<path class="st2" d="M432.7,88.2c-0.9,0.2-1.5,1-1.3,1.9c0.2,0.9,1,1.5,1.9,1.3c0.2,0,0.3-0.1,0.5-0.2c0.9-0.2,1.5-1,1.3-1.9
			c-0.2-0.9-1-1.5-1.9-1.3C433.1,88.1,432.9,88.1,432.7,88.2z"/>
		<path class="st1" d="M22.5,88.4c2.9-1,4.5-4.2,3.5-7.1c-1-2.9-4.2-4.5-7.1-3.5c-2.9,1-4.5,4.2-3.5,7.1
			C16.4,87.9,19.6,89.4,22.5,88.4z"/>
		<path class="st2" d="M32.7,88.2c-0.9,0.1-1.5,0.9-1.4,1.8c0.1,0.9,0.9,1.5,1.8,1.4c0.2,0,0.4-0.1,0.6-0.2c0.9-0.1,1.5-0.9,1.4-1.8
			c-0.1-0.9-0.9-1.5-1.8-1.4C33.1,88,32.9,88.1,32.7,88.2z"/>
		<polyline class="st8" points="404.4,158.8 397.1,150.6 404.7,142.8 		"/>
		<path class="st2" d="M412,160.5c-0.9,0-1.6-0.8-1.6-1.6c0-0.9,0.8-1.6,1.6-1.6c0.9,0,1.6,0.8,1.6,1.6
			C413.6,159.8,412.9,160.5,412,160.5C412,160.5,412,160.5,412,160.5z"/>
		<path class="st2" d="M387.8,138.4c-0.9,0-1.6-0.7-1.6-1.6c0-0.9,0.7-1.6,1.6-1.6s1.6,0.7,1.6,1.6c0,0,0,0,0,0
			C389.4,137.7,388.7,138.4,387.8,138.4z"/>
		<path class="st2" d="M393.4,158.6c-0.9,0-1.6-0.7-1.6-1.6c0-0.9,0.7-1.6,1.6-1.6s1.6,0.7,1.6,1.6c0,0,0,0,0,0
			C395,157.9,394.3,158.6,393.4,158.6z"/>
		<polyline class="st4" points="299.1,338.2 294.8,347.1 303.6,351.5 299.4,360.3 308.2,364.6 		"/>
		<path class="st2" d="M287.1,359.1c-0.4,0.8-0.1,1.8,0.7,2.2c0.8,0.4,1.8,0.1,2.2-0.7c0.4-0.8,0.1-1.8-0.7-2.2c0,0,0,0,0,0
			C288.5,358,287.5,358.3,287.1,359.1z"/>
		<path class="st2" d="M310.2,356.8c-0.4,0.8-0.1,1.8,0.7,2.2c0.8,0.4,1.8,0.1,2.2-0.7c0.4-0.8,0.1-1.8-0.7-2.2c0,0,0,0,0,0
			C311.6,355.7,310.6,356,310.2,356.8z"/>
		<path class="st2" d="M310.7,342.3c-0.4,0.8-0.1,1.8,0.7,2.2c0.8,0.4,1.8,0.1,2.2-0.7c0.4-0.8,0.1-1.8-0.7-2.2c0,0,0,0,0,0
			C312.1,341.1,311.1,341.5,310.7,342.3z"/>
		<path class="st2" d="M368.7,404.6c0.9-0.2,1.3-1.1,1.1-2c-0.2-0.9-1.1-1.3-2-1.1c-0.8,0.2-1.3,1.1-1.1,2
			C366.9,404.3,367.8,404.8,368.7,404.6C368.7,404.6,368.7,404.6,368.7,404.6z"/>
		<polyline class="st4" points="362,25.2 371.5,22.6 369,13.1 378.4,10.5 375.9,1 		"/>
		<path class="st2" d="M385.6,20.5c0.9-0.2,1.3-1.1,1.1-2s-1.1-1.3-2-1.1c-0.8,0.2-1.3,1.1-1.1,2C383.8,20.2,384.7,20.8,385.6,20.5
			C385.6,20.5,385.6,20.5,385.6,20.5z"/>
		<path class="st2" d="M368.7,4.6c0.9-0.2,1.3-1.1,1.1-2s-1.1-1.3-2-1.1c-0.8,0.2-1.3,1.1-1.1,2C366.9,4.3,367.8,4.8,368.7,4.6
			C368.7,4.6,368.7,4.6,368.7,4.6z"/>
		<path class="st2" d="M357.4,13.8c0.8-0.2,1.3-1.1,1.1-2s-1.1-1.3-2-1.1c-0.8,0.2-1.3,1.1-1.1,1.9C355.6,13.5,356.5,14,357.4,13.8
			C357.4,13.8,357.4,13.8,357.4,13.8z"/>
		<line class="st6" x1="25.9" y1="4.8" x2="29.4" y2="17.1"/>
		<line class="st6" x1="32" y1="3.1" x2="35.6" y2="15.4"/>
		<path class="st2" d="M23.5,20.3c0.9-0.2,1.7,0.3,2,1.1c0.2,0.9-0.3,1.7-1.1,2c-0.9,0.2-1.7-0.3-2-1.1
			C22.2,21.5,22.7,20.6,23.5,20.3C23.5,20.3,23.5,20.3,23.5,20.3z"/>
		<path class="st2" d="M41.2,6.3c0.9-0.2,1.7,0.2,2,1.1c0.2,0.9-0.2,1.7-1.1,2c-0.9,0.2-1.7-0.2-2-1.1C39.8,7.5,40.3,6.6,41.2,6.3
			C41.2,6.3,41.2,6.3,41.2,6.3z"/>
		<path class="st1" d="M93.3,188.7c0.8-3,3.9-4.8,6.9-4s4.8,3.9,4,6.9c-0.8,3-3.8,4.8-6.8,4C94.3,194.7,92.5,191.7,93.3,188.7
			C93.3,188.7,93.3,188.7,93.3,188.7z"/>
		<path class="st2" d="M92.8,178.5c-0.2,0.9-1.1,1.3-2,1.1s-1.3-1.1-1.1-2c0.2-0.8,1.1-1.3,2-1.1C92.5,176.7,93,177.6,92.8,178.5
			C92.8,178.4,92.8,178.5,92.8,178.5z"/>
		<polygon class="st3" points="349.6,384.1 351,368.1 336.5,374.9 		"/>
		<path class="st2" d="M357.4,372.9c-0.5,0.7-0.3,1.7,0.4,2.2c0.7,0.5,1.7,0.3,2.2-0.4c0.5-0.7,0.3-1.7-0.4-2.2
			C358.9,372,357.9,372.2,357.4,372.9z"/>
		<polyline class="st4" points="251.3,204.2 252,214.1 242.2,214.8 242.8,224.6 233,225.3 		"/>
		<path class="st2" d="M254.6,228.1c0.1,0.9-0.6,1.7-1.5,1.7c0,0,0,0,0,0c-0.9,0.1-1.7-0.6-1.7-1.5c-0.1-0.9,0.6-1.7,1.5-1.7
			C253.8,226.5,254.5,227.2,254.6,228.1C254.6,228.1,254.6,228.1,254.6,228.1z"/>
		<path class="st2" d="M234.1,217.3c0.1,0.9-0.6,1.7-1.5,1.7c-0.9,0.1-1.7-0.6-1.7-1.5c-0.1-0.9,0.6-1.7,1.5-1.7c0,0,0,0,0,0
			C233.2,215.8,234,216.4,234.1,217.3z"/>
		<path class="st2" d="M239.1,203.6c0.1,0.9-0.6,1.7-1.5,1.7c-0.9,0.1-1.7-0.6-1.7-1.5c-0.1-0.9,0.6-1.6,1.5-1.7
			C238.2,202.1,239,202.7,239.1,203.6C239.1,203.6,239.1,203.6,239.1,203.6z"/>
		<line class="st6" x1="366.1" y1="117.6" x2="371.5" y2="106"/>
		<line class="st6" x1="371.9" y1="120.3" x2="377.3" y2="108.7"/>
		<path class="st2" d="M366.2,101.9c0.8,0.4,1.8,0,2.1-0.8c0.4-0.8,0-1.8-0.8-2.1c-0.8-0.4-1.8,0-2.1,0.8
			C365.1,100.6,365.4,101.5,366.2,101.9z"/>
		<path class="st2" d="M381.5,118.5c0.8,0.4,1.8,0,2.1-0.8s0-1.8-0.8-2.1l0,0c-0.8-0.4-1.8,0-2.1,0.8S380.6,118.1,381.5,118.5
			L381.5,118.5z"/>
		<polygon class="st3" points="132.2,275.9 120.5,265 116.9,280.6 		"/>
		<path class="st2" d="M128.3,262.9c0.3,0.9,1.2,1.3,2,1.1c0.9-0.3,1.3-1.2,1.1-2s-1.2-1.3-2-1.1c0,0,0,0,0,0
			C128.5,261.1,128,262,128.3,262.9z"/>
		<line class="st6" x1="170.4" y1="262" x2="164.6" y2="273.5"/>
		<line class="st6" x1="164.7" y1="259.1" x2="158.9" y2="270.5"/>
		<path class="st2" d="M169.8,277.7c-0.8-0.4-1.8-0.1-2.2,0.7c-0.4,0.8-0.1,1.8,0.7,2.2s1.8,0.1,2.2-0.7c0,0,0,0,0,0
			C170.9,279.1,170.5,278.1,169.8,277.7z"/>
		<path class="st2" d="M155.1,260.6c-0.8-0.4-1.8-0.1-2.2,0.7c-0.4,0.8-0.1,1.8,0.7,2.2c0.8,0.4,1.8,0.1,2.2-0.7
			C156.2,261.9,155.9,261,155.1,260.6z"/>
		<line class="st6" x1="249.5" y1="113.3" x2="243.7" y2="124.7"/>
		<line class="st6" x1="243.8" y1="110.4" x2="238" y2="121.8"/>
		<path class="st2" d="M248.8,129c-0.8-0.4-1.8-0.1-2.2,0.7c-0.4,0.8-0.1,1.8,0.7,2.2c0.8,0.4,1.8,0.1,2.2-0.7c0,0,0,0,0,0
			C249.9,130.4,249.6,129.4,248.8,129z"/>
		<path class="st2" d="M234.2,111.8c-0.8-0.4-1.8-0.1-2.2,0.7c-0.4,0.8-0.1,1.8,0.7,2.2s1.8,0.1,2.2-0.7
			C235.3,113.2,235,112.2,234.2,111.8z"/>
		<polyline class="st8" points="316.4,67.5 316.6,56.6 327.5,56 		"/>
		<path class="st2" d="M320.8,74c-0.6-0.6-0.6-1.6,0-2.3c0.6-0.6,1.6-0.6,2.3,0s0.6,1.6,0,2.3c0,0,0,0,0,0
			C322.4,74.6,321.4,74.6,320.8,74z"/>
		<path class="st2" d="M318.2,41.3c-0.6-0.6-0.6-1.6,0-2.3s1.6-0.6,2.3,0c0.6,0.6,0.6,1.6,0,2.3C319.8,41.9,318.8,41.9,318.2,41.3z"
			/>
		<path class="st2" d="M308.5,59.9c-0.6-0.6-0.6-1.6,0-2.3c0.6-0.6,1.6-0.6,2.3,0c0.6,0.6,0.6,1.6,0,2.3c0,0,0,0,0,0
			C310.1,60.5,309.1,60.5,308.5,59.9z"/>
		<line class="st7" x1="243.9" y1="183" x2="229.5" y2="183.2"/>
		<path class="st2" d="M249.2,173c0.9,0,1.6-0.7,1.6-1.6c0-0.9-0.7-1.6-1.6-1.6c-0.9,0-1.6,0.7-1.6,1.6c0,0,0,0,0,0
			C247.6,172.3,248.4,173,249.2,173z"/>
		<path class="st2" d="M231.4,193.3c0.9,0,1.6-0.7,1.6-1.6c0-0.9-0.7-1.6-1.6-1.6c-0.9,0-1.6,0.7-1.6,1.6c0,0,0,0,0,0
			C229.8,192.6,230.5,193.3,231.4,193.3C231.4,193.3,231.4,193.3,231.4,193.3z"/>
		<line class="st6" x1="333.6" y1="38.6" x2="346" y2="35.3"/>
		<line class="st6" x1="332" y1="32.5" x2="344.3" y2="29.1"/>
		<path class="st2" d="M349.1,41.2c-0.2-0.9,0.3-1.7,1.1-2c0.9-0.2,1.7,0.3,2,1.1c0.2,0.8-0.3,1.7-1.1,2
			C350.2,42.6,349.3,42.1,349.1,41.2C349.1,41.3,349.1,41.2,349.1,41.2z"/>
		<path class="st2" d="M335.4,23.4c-0.2-0.9,0.3-1.7,1.1-2c0.9-0.2,1.7,0.3,2,1.1c0.2,0.8-0.3,1.7-1.1,2
			C336.5,24.8,335.6,24.3,335.4,23.4C335.4,23.4,335.4,23.4,335.4,23.4z"/>
		<path class="st1" d="M148.1,92c-0.6,3-3.5,5-6.6,4.4c-3-0.6-5-3.5-4.4-6.6c0.6-3,3.5-5,6.6-4.4C146.7,86,148.6,89,148.1,92z"/>
		<path class="st2" d="M149.3,102.2c0.2-0.9,1-1.4,1.9-1.3c0.9,0.2,1.4,1,1.3,1.9c-0.2,0.9-1,1.4-1.9,1.3
			C149.7,103.9,149.1,103,149.3,102.2C149.3,102.2,149.3,102.2,149.3,102.2z"/>
		
			<rect x="369.4" y="48.7" transform="matrix(0.9986 -5.233596e-02 5.233596e-02 0.9986 -2.3673 19.7448)" class="st5" width="12.8" height="12.8"/>
		<path class="st2" d="M388.1,54c-0.9,0-1.6-0.6-1.7-1.5c0-0.9,0.6-1.6,1.5-1.7s1.6,0.6,1.7,1.5c0,0,0,0,0,0
			C389.7,53.2,389,54,388.1,54z"/>
		<path class="st2" d="M363.3,71.8c-0.9,0-1.6-0.6-1.7-1.5s0.6-1.6,1.5-1.7c0.9,0,1.6,0.6,1.7,1.5C364.8,71,364.2,71.8,363.3,71.8
			C363.3,71.8,363.3,71.8,363.3,71.8z"/>
		<line class="st6" x1="272.6" y1="311.4" x2="273.7" y2="324.1"/>
		<line class="st6" x1="278.9" y1="310.8" x2="280" y2="323.5"/>
		<path class="st2" d="M267.3,326.1c0.9-0.1,1.7,0.6,1.7,1.5s-0.6,1.7-1.5,1.7c-0.9,0.1-1.7-0.6-1.7-1.5
			C265.8,327,266.4,326.2,267.3,326.1C267.3,326.1,267.3,326.1,267.3,326.1z"/>
		<path class="st2" d="M287.3,315.7c0.9-0.1,1.7,0.6,1.7,1.5c0.1,0.9-0.6,1.7-1.5,1.7c-0.9,0.1-1.7-0.6-1.7-1.5c0,0,0,0,0,0
			C285.7,316.6,286.4,315.8,287.3,315.7z"/>
		<polygon class="st3" points="386.5,298.5 387.3,282.5 400.8,291.2 		"/>
		<path class="st2" d="M380.3,286.3c0.4,0.8,0.1,1.8-0.7,2.2s-1.8,0.1-2.2-0.7s-0.1-1.8,0.7-2.2c0,0,0,0,0,0
			C378.9,285.2,379.9,285.5,380.3,286.3z"/>
		<polygon class="st3" points="232.8,341.8 225.1,327.8 241.1,328.2 		"/>
		<path class="st2" d="M221.2,334.7c0.8,0.5,1,1.5,0.5,2.2c-0.5,0.8-1.5,1-2.2,0.5c-0.8-0.5-1-1.5-0.5-2.2c0,0,0,0,0,0
			C219.4,334.5,220.4,334.2,221.2,334.7C221.2,334.7,221.2,334.7,221.2,334.7z"/>
		<path class="st2" d="M203.9,345.2c0.8,0.5,1,1.5,0.5,2.2s-1.5,1-2.2,0.5s-1-1.5-0.5-2.2S203.2,344.8,203.9,345.2z"/>
		<line class="st6" x1="39.5" y1="211.3" x2="45.5" y2="200"/>
		<line class="st6" x1="33.9" y1="208.3" x2="39.9" y2="197"/>
		<path class="st2" d="M52,201.8c-0.8-0.5-1-1.4-0.6-2.2c0.4-0.7,1.3-1,2.1-0.6c0.8,0.4,1.1,1.4,0.7,2.2c0,0,0,0,0,0
			C53.8,201.9,52.8,202.2,52,201.8z"/>
		<path class="st2" d="M29.6,199.6c-0.8-0.4-1.1-1.4-0.7-2.2c0.4-0.8,1.4-1.1,2.2-0.7c0.8,0.4,1.1,1.4,0.7,2.2
			C31.3,199.7,30.4,200,29.6,199.6C29.6,199.6,29.6,199.6,29.6,199.6z"/>
		<polygon class="st3" points="222.3,100.5 210.4,111.2 207.1,95.5 		"/>
		<path class="st2" d="M218.1,113.4c0.3-0.8,1.2-1.3,2-1.1c0.8,0.3,1.3,1.2,1.1,2c-0.3,0.8-1.2,1.3-2,1.1c0,0,0,0-0.1,0
			C218.3,115.1,217.8,114.3,218.1,113.4z"/>
		<line class="st7" x1="88" y1="114.6" x2="75.2" y2="121.2"/>
		<path class="st2" d="M88.4,103.3c0.8-0.4,1.1-1.4,0.7-2.2c-0.4-0.8-1.4-1.1-2.2-0.7c-0.8,0.4-1.1,1.4-0.7,2.2
			C86.6,103.4,87.6,103.7,88.4,103.3z"/>
		<path class="st2" d="M81.3,129.4c0.8-0.4,1.1-1.4,0.7-2.2c0,0,0,0,0,0c-0.4-0.8-1.4-1.1-2.2-0.7c-0.8,0.4-1.1,1.4-0.7,2.2
			C79.5,129.5,80.5,129.8,81.3,129.4z"/>
		<polyline class="st8" points="214.8,140.7 206.6,147.8 198.9,140.1 		"/>
		<path class="st2" d="M216.7,133.1c0,0.9-0.8,1.6-1.7,1.5c-0.9,0-1.6-0.8-1.5-1.7c0-0.9,0.8-1.6,1.7-1.5
			C216,131.5,216.7,132.2,216.7,133.1C216.7,133.1,216.7,133.1,216.7,133.1z"/>
		<path class="st2" d="M194.2,156.9c0,0.9-0.8,1.6-1.7,1.5c-0.9,0-1.6-0.8-1.5-1.7c0-0.9,0.8-1.6,1.7-1.5
			C193.5,155.3,194.2,156.1,194.2,156.9z"/>
		<path class="st2" d="M214.5,151.7c0,0.9-0.8,1.6-1.7,1.5c-0.9,0-1.6-0.8-1.5-1.7c0-0.9,0.8-1.6,1.7-1.5
			C213.8,150,214.5,150.8,214.5,151.7z"/>
		<polyline class="st8" points="282.1,275.7 273.9,282.9 266.1,275.2 		"/>
		<path class="st2" d="M284,268.2c0,0.9-0.8,1.6-1.7,1.5c-0.9,0-1.6-0.8-1.5-1.7c0-0.9,0.8-1.6,1.7-1.5
			C283.3,266.6,284,267.3,284,268.2C284,268.2,284,268.2,284,268.2z"/>
		<path class="st2" d="M261.4,292c0,0.9-0.8,1.6-1.7,1.6c-0.9,0-1.6-0.8-1.6-1.7c0-0.9,0.8-1.6,1.7-1.6c0,0,0,0,0,0
			C260.8,290.4,261.5,291.1,261.4,292z"/>
		<path class="st2" d="M281.7,286.8c0,0.9-0.8,1.6-1.7,1.5c-0.9,0-1.6-0.8-1.5-1.7c0-0.9,0.8-1.6,1.7-1.5
			C281.1,285.1,281.8,285.9,281.7,286.8C281.7,286.7,281.7,286.7,281.7,286.8z"/>
		<polyline class="st8" points="358.6,290 347.8,288.5 348.6,277.5 		"/>
		<path class="st2" d="M365.6,286.5c-0.7,0.6-1.7,0.5-2.3-0.2c-0.6-0.7-0.5-1.7,0.2-2.3c0.7-0.6,1.7-0.5,2.3,0.2c0,0,0,0,0,0
			C366.4,284.9,366.2,285.9,365.6,286.5z"/>
		<path class="st2" d="M332.8,285.1c-0.7,0.6-1.7,0.5-2.3-0.2c-0.6-0.7-0.5-1.7,0.2-2.3c0.7-0.6,1.7-0.5,2.3,0.2c0,0,0,0,0,0
			C333.6,283.5,333.5,284.5,332.8,285.1z"/>
		<path class="st2" d="M350.1,296.9c-0.7,0.6-1.7,0.5-2.3-0.2c-0.6-0.7-0.5-1.7,0.2-2.3c0.7-0.6,1.7-0.5,2.3,0.2c0,0,0,0,0,0
			C350.9,295.3,350.8,296.4,350.1,296.9C350.1,296.9,350.1,296.9,350.1,296.9z"/>
		<polygon class="st3" points="292.1,104 301.5,91.1 285.6,89.4 		"/>
		<path class="st2" d="M304.5,98.5c-0.8,0.4-1.2,1.3-0.8,2.1s1.3,1.2,2.1,0.8c0.8-0.4,1.2-1.3,0.8-2.1c0,0,0,0,0,0
			C306.3,98.5,305.4,98.1,304.5,98.5z"/>
		<polygon class="st3" points="117,218.8 123,204 107.2,206.2 		"/>
		<path class="st2" d="M127.7,210.4c-0.7,0.5-0.8,1.6-0.3,2.3s1.6,0.8,2.3,0.3c0.7-0.5,0.8-1.6,0.3-2.3
			C129.4,210,128.4,209.9,127.7,210.4C127.7,210.4,127.7,210.4,127.7,210.4z"/>
		<line class="st6" x1="358" y1="227.3" x2="350.8" y2="216.7"/>
		<line class="st6" x1="352.7" y1="230.9" x2="345.5" y2="220.3"/>
		<path class="st2" d="M355.4,211.9c-0.7,0.5-1.7,0.3-2.2-0.4c-0.5-0.7-0.3-1.7,0.4-2.2s1.7-0.3,2.2,0.4c0,0,0,0,0,0
			C356.3,210.4,356.1,211.4,355.4,211.9z"/>
		<path class="st2" d="M343,230.6c-0.7,0.5-1.7,0.3-2.2-0.4c-0.5-0.7-0.3-1.7,0.4-2.2s1.7-0.3,2.2,0.4c0,0,0,0,0,0
			C343.9,229.2,343.7,230.2,343,230.6z"/>
		<path class="st1" d="M160.1,155.8c-3,0.9-4.6,4-3.7,7s4,4.6,7,3.7c3-0.9,4.6-4,3.7-7C166.2,156.5,163,154.9,160.1,155.8
			C160.1,155.8,160.1,155.8,160.1,155.8z"/>
		<path class="st2" d="M149.9,155.6c0.9-0.3,1.3-1.2,1.1-2s-1.2-1.3-2-1.1s-1.3,1.2-1.1,2c0,0,0,0,0,0
			C148.1,155.4,149,155.9,149.9,155.6C149.9,155.6,149.9,155.6,149.9,155.6z"/>
	</g>
</g>
</svg>
